<svg width="35" height="35" viewBox="0 0 35 35" fill="none" xmlns="http://www.w3.org/2000/svg">
<path d="M14.959 5.10352C13.8336 5.10352 12.7966 5.71367 12.25 6.69749L11.3127 8.38477H8.56771C6.25214 8.38477 4.375 10.2619 4.375 12.5775V24.9733C4.375 27.2888 6.25214 29.166 8.56771 29.166H16.7681C16.526 28.5854 16.34 27.9754 16.2168 27.3431H8.56771C7.25891 27.3431 6.19792 26.2821 6.19792 24.9733V12.5775C6.19792 11.2687 7.25891 10.2077 8.56771 10.2077H12.3853L13.8435 7.58276C14.0686 7.17767 14.4956 6.92643 14.959 6.92643H20.041C20.5044 6.92643 20.9314 7.17767 21.1565 7.58276L22.6147 10.2077H26.4323C27.7411 10.2077 28.8021 11.2687 28.8021 12.5775V16.6243C29.4454 16.8617 30.056 17.1668 30.625 17.5311V12.5775C30.625 10.2619 28.7478 8.38477 26.4323 8.38477H23.6873L22.75 6.69749C22.2034 5.71367 21.1664 5.10352 20.041 5.10352H14.959Z" fill="white"/>
<path d="M17.4993 12.3965C20.0717 12.3965 22.2551 14.0615 23.0308 16.3726C22.4366 16.5338 21.8656 16.7515 21.3239 17.0194C20.8106 15.3961 19.2924 14.2194 17.4993 14.2194C15.2844 14.2194 13.4889 16.0149 13.4889 18.2298C13.4889 20.1559 14.8468 21.7649 16.6575 22.1517C16.4432 22.7149 16.2811 23.3039 16.177 23.9126C13.5923 23.3136 11.666 20.9966 11.666 18.2298C11.666 15.0081 14.2777 12.3965 17.4993 12.3965Z" fill="white"/>
<path d="M33.5417 25.5208C33.5417 29.9506 29.9506 33.5417 25.5208 33.5417C21.0911 33.5417 17.5 29.9506 17.5 25.5208C17.5 21.0911 21.0911 17.5 25.5208 17.5C29.9506 17.5 33.5417 21.0911 33.5417 25.5208ZM26.25 21.1458C26.25 20.7431 25.9236 20.4167 25.5208 20.4167C25.1181 20.4167 24.7917 20.7431 24.7917 21.1458V24.7917H21.1458C20.7431 24.7917 20.4167 25.1181 20.4167 25.5208C20.4167 25.9236 20.7431 26.25 21.1458 26.25H24.7917V29.8958C24.7917 30.2986 25.1181 30.625 25.5208 30.625C25.9236 30.625 26.25 30.2986 26.25 29.8958V26.25H29.8958C30.2986 26.25 30.625 25.9236 30.625 25.5208C30.625 25.1181 30.2986 24.7917 29.8958 24.7917H26.25V21.1458Z" fill="white"/>
</svg>
