<svg width="50" height="50" viewBox="0 0 50 50" fill="none" xmlns="http://www.w3.org/2000/svg">
<g clip-path="url(#clip0_6328_380)">
<path d="M49.4632 9.65612L49.4973 9.56561L25.0106 0L0.563734 9.66482L0.483912 9.63311V9.69508L0.480469 9.69698L0.483912 9.7074V40.3905L24.9995 49.9999L49.5184 40.3901V9.63356L49.4632 9.65612ZM24.9878 1.88049L33.2931 4.85492L10.6525 13.645L2.98313 10.6197L24.9878 1.88049ZM24.1256 47.8323L14.9437 44.1253L10.3356 42.3942L2.23601 39.1988V12.2077L10.2544 15.3706V22.1197L10.969 21.9202L11.4519 22.5838L12.1243 22.4268L12.7754 23.1147L13.3437 22.9189L14.2611 23.8287V16.9508L14.9748 17.2326L24.1257 20.8417V47.8323H24.1256ZM25.0014 19.3056L16.049 15.7736L38.1285 6.8252L47.2346 10.5349L25.0014 19.3056ZM47.7675 39.1988L25.8765 47.8323V20.8418L47.7654 12.2072V39.1982L47.7675 39.1988Z" fill="white"/>
</g>
<defs>
<clipPath id="clip0_6328_380">
<rect width="50" height="50" fill="white"/>
</clipPath>
</defs>
</svg>
