<svg width="100" height="100" viewBox="0 0 100 100" fill="none" xmlns="http://www.w3.org/2000/svg">
<path d="M50.5022 33.478C49.3228 33.478 48.3656 34.4346 48.3656 35.6145V50.3867L56.4691 58.4906C56.8862 58.9078 57.4332 59.1167 57.9796 59.1167C58.526 59.1167 59.073 58.9078 59.4901 58.4906C60.325 57.6558 60.325 56.3039 59.4901 55.4695L52.6387 48.6176V35.6145C52.6387 34.4346 51.681 33.478 50.5022 33.478ZM67.1064 32.8904C61.8297 27.6126 54.5606 25.1892 47.1638 26.2409C45.9973 26.4081 45.1832 27.4887 45.3499 28.6568C45.516 29.8255 46.5966 30.638 47.7658 30.4718C53.8176 29.6103 59.7658 31.5935 64.0848 35.9115C71.5815 43.4082 71.5815 55.6079 64.0848 63.1056C56.586 70.6022 44.3879 70.6022 36.8907 63.1056C29.4656 55.68 29.4058 43.6496 36.6893 36.1348L37.0296 39.8823C37.1364 41.0569 38.1759 41.9227 39.351 41.8164C40.525 41.708 41.393 40.6707 41.2856 39.495L40.5303 31.1854C40.4299 30.0846 39.5075 29.2428 38.4023 29.2428H29.3369C28.7472 29.2417 28.2131 29.4815 27.8264 29.8677C27.4397 30.255 27.2004 30.7891 27.2009 31.3783C27.2004 32.5593 28.157 33.5148 29.3369 33.5148H33.2751C24.7166 42.7202 24.9105 57.1676 33.8702 66.1272C43.0333 75.2909 57.9427 75.2909 67.1064 66.1272C76.2701 56.9635 76.2701 42.0536 67.1064 32.8904Z" fill="white"/>
</svg>
