<svg width="25" height="25" viewBox="0 0 25 25" fill="none" xmlns="http://www.w3.org/2000/svg">
<path d="M2.33333 7C2.33333 8.47276 3.52724 9.66667 5 9.66667C6.47276 9.66667 7.66667 8.47276 7.66667 7C7.66667 5.52724 6.47276 4.33333 5 4.33333C3.52724 4.33333 2.33333 5.52724 2.33333 7ZM20 7.5C20.2761 7.5 20.5 7.27614 20.5 7C20.5 6.72386 20.2761 6.5 20 6.5V7.5ZM5 7.5H20V6.5H5V7.5Z" fill="white"/>
<path d="M5 12C4.72386 12 4.5 12.2239 4.5 12.5C4.5 12.7761 4.72386 13 5 13V12ZM17.3333 12.5C17.3333 13.9728 18.5272 15.1667 20 15.1667C21.4728 15.1667 22.6667 13.9728 22.6667 12.5C22.6667 11.0272 21.4728 9.83333 20 9.83333C18.5272 9.83333 17.3333 11.0272 17.3333 12.5ZM5 13H20V12H5V13Z" fill="white"/>
<path d="M2.33333 18.5C2.33333 19.9728 3.52724 21.1667 5 21.1667C6.47276 21.1667 7.66667 19.9728 7.66667 18.5C7.66667 17.0272 6.47276 15.8333 5 15.8333C3.52724 15.8333 2.33333 17.0272 2.33333 18.5ZM20 19C20.2761 19 20.5 18.7761 20.5 18.5C20.5 18.2239 20.2761 18 20 18V19ZM5 19H20V18H5V19Z" fill="white"/>
</svg>
