<svg width="100" height="100" viewBox="0 0 100 100" fill="none" xmlns="http://www.w3.org/2000/svg">
<path d="M38.0406 63.582C37.0971 63.582 36.334 64.3453 36.334 65.2887C36.334 66.232 37.0973 66.9978 38.0406 66.9978C38.9839 66.9978 39.7498 66.2321 39.7498 65.2887C39.7498 64.3452 38.9841 63.582 38.0406 63.582Z" fill="white"/>
<path d="M91 49.9147L77.2841 36.2588L67.1817 36.25H67.0791V29.4171C67.0791 27.5303 65.5501 26 63.6633 26H26.0868C24.1999 26 22.6709 27.5303 22.6709 29.4171H10.7092C9.76571 29.4173 9 30.1817 9 31.1252C9 32.0686 9.76571 32.8331 10.7092 32.8331H22.6709L22.6684 39.6673H14.125C13.1815 39.6673 12.4184 40.4306 12.4184 41.3739C12.4184 42.3172 13.1815 43.0831 14.125 43.0831H22.6684V49.9173H17.5434C16.5999 49.9173 15.8342 50.6806 15.8342 51.6239C15.8342 52.5672 16.5999 53.3331 17.5434 53.3331H22.6684V60.1647H20.9592C20.0157 60.1647 19.25 60.9306 19.25 61.8739C19.25 62.8172 20.0157 63.5831 20.9592 63.5831H22.6684C22.6684 65.4699 24.1974 66.9989 26.0842 66.9989H29.6726C30.4635 70.8977 33.9093 73.8331 38.0408 73.8331C42.1748 73.8331 45.6207 70.8977 46.4115 66.9989H63.6608H68.9635C69.7543 70.8977 73.2001 73.8331 77.3316 73.8331C81.4656 73.8331 84.9115 70.8977 85.7024 66.9989H90.9649L91 49.9147ZM38.0408 70.4147C35.2155 70.4147 32.9184 68.1174 32.9184 65.2897C32.9184 62.4644 35.2157 60.1647 38.0408 60.1647C40.8685 60.1647 43.1658 62.4644 43.1658 65.2897C43.1658 68.1176 40.8685 70.4147 38.0408 70.4147ZM63.6608 63.5831H46.4115C45.6207 59.6842 42.1749 56.7489 38.0408 56.7489C33.9093 56.7489 30.4635 59.6842 29.6726 63.5831H26.0842L26.0868 29.4173H63.6634V29.416L63.6608 63.5831ZM77.3316 70.4147C74.5063 70.4147 72.2066 68.1174 72.2066 65.2897C72.2066 62.4644 74.5063 60.1647 77.3316 60.1647C80.1593 60.1647 82.4566 62.4644 82.4566 65.2897C82.4566 68.1176 80.1593 70.4147 77.3316 70.4147ZM87.5566 63.5831H85.7024C84.9115 59.6842 81.4657 56.7489 77.3316 56.7489C73.2001 56.7489 69.7543 59.6842 68.9635 63.5831H67.0767L67.0792 39.6673H67.1768L75.8728 39.6748L87.5816 51.3337L87.5566 63.5831Z" fill="white"/>
<path d="M77.3316 63.582C76.3881 63.582 75.625 64.3453 75.625 65.2887C75.625 66.232 76.3883 66.9978 77.3316 66.9978C78.2749 66.9978 79.0408 66.2321 79.0408 65.2887C79.0408 64.3452 78.2751 63.582 77.3316 63.582Z" fill="white"/>
</svg>
