<svg width="30" height="30" viewBox="0 0 30 30" fill="none" xmlns="http://www.w3.org/2000/svg">
<path d="M14.9777 0.633281C14.8518 0.637624 14.7304 0.681494 14.6308 0.758672L0.830811 11.527C0.705247 11.6249 0.623718 11.7687 0.604159 11.9267C0.584599 12.0847 0.628612 12.244 0.726514 12.3696C0.824416 12.4952 0.968188 12.5767 1.1262 12.5963C1.28422 12.6158 1.44353 12.5718 1.56909 12.4739L2.39995 11.8259V27.6005C2.39997 27.7596 2.46319 27.9122 2.5757 28.0247C2.68822 28.1372 2.84083 28.2005 2.99995 28.2005H11.2992C11.364 28.2112 11.4301 28.2112 11.4949 28.2005H18.4992C18.564 28.2112 18.6301 28.2112 18.6949 28.2005H27C27.1591 28.2005 27.3117 28.1372 27.4242 28.0247C27.5367 27.9122 27.5999 27.7596 27.6 27.6005V11.8259L28.4308 12.4739C28.493 12.5224 28.5641 12.5581 28.6401 12.5791C28.7161 12.6001 28.7955 12.606 28.8737 12.5963C28.952 12.5866 29.0275 12.5616 29.0961 12.5227C29.1647 12.4838 29.2249 12.4318 29.2734 12.3696C29.3219 12.3075 29.3577 12.2363 29.3787 12.1603C29.3996 12.0844 29.4055 12.005 29.3958 11.9267C29.3861 11.8485 29.3611 11.7729 29.3222 11.7043C29.2833 11.6358 29.2313 11.5755 29.1691 11.527L24.6 7.96219V3.60047H21V5.15203L15.3691 0.758672C15.2575 0.672104 15.1188 0.627701 14.9777 0.633281ZM15 1.99383L26.4 10.8895V27.0005H19.2V15.6005H10.8V27.0005H3.59995V10.8895L15 1.99383ZM22.2 4.80047H23.4V7.02586L22.2 6.08836V4.80047ZM12 16.8005H18V27.0005H12V16.8005Z" fill="white"/>
</svg>
