<svg width="33" height="33" viewBox="0 0 33 33" fill="none" xmlns="http://www.w3.org/2000/svg">
<g clip-path="url(#clip0_1665_79)">
<path d="M10.3923 6C0 12 0 12 6 22.3923C12 32.7846 12 32.7846 22.3923 26.7846C28.1081 23.4846 30.0846 16.1081 26.7846 10.3923C23.4846 4.67654 16.1081 2.7 10.3923 6ZM21.6423 25.4856C16.6194 28.3856 10.199 26.6653 7.29904 21.6423C2.04904 12.549 2.04904 12.549 11.1423 7.29904C16.158 4.40322 22.5856 6.11936 25.4856 11.1423C28.3856 16.1653 26.6653 22.5856 21.6423 25.4856Z" fill="white"/>
<path d="M18.6667 12H13.3333C12.597 12 12 12.597 12 13.3333V18.6667C12 19.4031 12.597 20 13.3333 20H18.6667C19.403 20 20 19.4031 20 18.6667V13.3333C20 12.597 19.403 12 18.6667 12Z" stroke="white"/>
<circle cx="16" cy="16" r="2" fill="#D9D9D9"/>
</g>
<defs>
<clipPath id="clip0_1665_79">
<rect width="24" height="24" fill="white" transform="translate(0 12) rotate(-30)"/>
</clipPath>
</defs>
</svg>
