<svg width="132" height="35" viewBox="0 0 132 35" fill="none" xmlns="http://www.w3.org/2000/svg">
<path d="M40.3027 28H38.5596V10.1875C38.5596 9.10352 38.75 8.19043 39.1309 7.44824C39.5117 6.70605 40.0537 6.14453 40.7568 5.76367C41.4697 5.38281 42.3291 5.19238 43.335 5.19238C43.7842 5.19238 44.3115 5.23633 44.917 5.32422C45.5322 5.40234 46.1768 5.50977 46.8506 5.64648C47.5244 5.7832 48.1787 5.92969 48.8135 6.08594L47.9053 7.3457C47.0557 7.17969 46.2598 7.03809 45.5176 6.9209C44.7754 6.80371 44.0869 6.74512 43.4521 6.74512C42.7881 6.74512 42.2217 6.88184 41.7529 7.15527C41.2842 7.41895 40.9229 7.80469 40.6689 8.3125C40.4248 8.82031 40.3027 9.44531 40.3027 10.1875V28ZM47.0703 28V6.08594H48.8135V28H47.0703ZM44.082 12.1504V13.5859H35.9375V12.1504H44.082ZM52.6807 20.3242V19.8408C52.6807 18.6885 52.8467 17.624 53.1787 16.6475C53.5107 15.6709 53.9844 14.8262 54.5996 14.1133C55.2246 13.4004 55.9717 12.8486 56.8408 12.458C57.71 12.0576 58.6768 11.8574 59.7412 11.8574C60.8154 11.8574 61.7871 12.0576 62.6562 12.458C63.5254 12.8486 64.2725 13.4004 64.8975 14.1133C65.5225 14.8262 66.001 15.6709 66.333 16.6475C66.665 17.624 66.8311 18.6885 66.8311 19.8408V20.3242C66.8311 21.4766 66.665 22.541 66.333 23.5176C66.001 24.4844 65.5225 25.3242 64.8975 26.0371C64.2822 26.75 63.54 27.3066 62.6709 27.707C61.8018 28.0977 60.835 28.293 59.7705 28.293C58.6963 28.293 57.7246 28.0977 56.8555 27.707C55.9863 27.3066 55.2393 26.75 54.6143 26.0371C53.9893 25.3242 53.5107 24.4844 53.1787 23.5176C52.8467 22.541 52.6807 21.4766 52.6807 20.3242ZM54.4238 19.8408V20.3242C54.4238 21.1934 54.541 22.0186 54.7754 22.7998C55.0098 23.5713 55.3516 24.2598 55.8008 24.8652C56.25 25.4609 56.8066 25.9297 57.4707 26.2715C58.1348 26.6133 58.9014 26.7842 59.7705 26.7842C60.6299 26.7842 61.3867 26.6133 62.041 26.2715C62.7051 25.9297 63.2617 25.4609 63.7109 24.8652C64.1602 24.2598 64.4971 23.5713 64.7217 22.7998C64.9561 22.0186 65.0732 21.1934 65.0732 20.3242V19.8408C65.0732 18.9814 64.9561 18.166 64.7217 17.3945C64.4971 16.623 64.1553 15.9346 63.6963 15.3291C63.2471 14.7236 62.6904 14.2451 62.0264 13.8936C61.3623 13.542 60.6006 13.3662 59.7412 13.3662C58.8818 13.3662 58.1201 13.542 57.4561 13.8936C56.8018 14.2451 56.2451 14.7236 55.7861 15.3291C55.3369 15.9346 54.9951 16.623 54.7607 17.3945C54.5361 18.166 54.4238 18.9814 54.4238 19.8408ZM74.8584 24.2939L78.6816 12.1504H79.9121L79.1797 15.417L75.1807 28H73.9502L74.8584 24.2939ZM70.8887 12.1504L74.2432 24.3672L74.9609 28H73.6865L69.0869 12.1504H70.8887ZM84.6729 24.3232L87.9395 12.1504H89.7412L85.1416 28H83.8818L84.6729 24.3232ZM80.1611 12.1504L83.9258 24.1914L84.8779 28H83.6475L79.5605 15.4023L78.8721 12.1504H80.1611ZM99.2334 28.293C98.1982 28.293 97.2461 28.1025 96.377 27.7217C95.5176 27.3408 94.7656 26.8037 94.1211 26.1104C93.4863 25.417 92.9932 24.5967 92.6416 23.6494C92.2998 22.6924 92.1289 21.6475 92.1289 20.5146V19.8848C92.1289 18.6641 92.3096 17.5605 92.6709 16.5742C93.0322 15.5879 93.5303 14.7432 94.165 14.04C94.7998 13.3369 95.5225 12.7998 96.333 12.4287C97.1533 12.0479 98.0127 11.8574 98.9111 11.8574C99.917 11.8574 100.811 12.0381 101.592 12.3994C102.373 12.751 103.027 13.2539 103.555 13.9082C104.092 14.5527 104.497 15.3193 104.771 16.208C105.044 17.0869 105.181 18.0586 105.181 19.123V20.1924H93.1836V18.6982H103.438V18.4932C103.418 17.6045 103.237 16.7744 102.896 16.0029C102.563 15.2217 102.065 14.5869 101.401 14.0986C100.737 13.6104 99.9072 13.3662 98.9111 13.3662C98.1689 13.3662 97.4854 13.5225 96.8604 13.835C96.2451 14.1475 95.7129 14.5967 95.2637 15.1826C94.8242 15.7588 94.4824 16.4473 94.2383 17.248C94.0039 18.0391 93.8867 18.918 93.8867 19.8848V20.5146C93.8867 21.3936 94.0137 22.2139 94.2676 22.9756C94.5312 23.7275 94.9023 24.3916 95.3809 24.9678C95.8691 25.5439 96.4453 25.9932 97.1094 26.3154C97.7734 26.6377 98.5059 26.7988 99.3066 26.7988C100.244 26.7988 101.074 26.6279 101.797 26.2861C102.52 25.9346 103.169 25.3828 103.745 24.6309L104.844 25.4805C104.502 25.9883 104.072 26.457 103.555 26.8867C103.047 27.3164 102.437 27.6582 101.724 27.9121C101.011 28.166 100.181 28.293 99.2334 28.293ZM110.381 14.7725V28H108.638V12.1504H110.337L110.381 14.7725ZM115.991 12.0332L115.947 13.6445C115.752 13.6152 115.562 13.5908 115.376 13.5713C115.19 13.5518 114.99 13.542 114.775 13.542C114.014 13.542 113.345 13.6836 112.769 13.9668C112.202 14.2402 111.724 14.626 111.333 15.124C110.942 15.6123 110.645 16.1885 110.439 16.8525C110.234 17.5068 110.117 18.21 110.088 18.9619L109.443 19.2109C109.443 18.1758 109.551 17.2139 109.766 16.3252C109.98 15.4365 110.308 14.6602 110.747 13.9961C111.196 13.3223 111.758 12.7998 112.432 12.4287C113.115 12.0479 113.916 11.8574 114.834 11.8574C115.059 11.8574 115.278 11.877 115.493 11.916C115.718 11.9453 115.884 11.9844 115.991 12.0332ZM128.237 23.957C128.237 23.5273 128.13 23.1025 127.915 22.6826C127.7 22.2627 127.285 21.877 126.67 21.5254C126.064 21.1738 125.171 20.876 123.989 20.6318C123.11 20.4365 122.324 20.2168 121.631 19.9727C120.947 19.7285 120.371 19.4355 119.902 19.0938C119.434 18.752 119.077 18.3418 118.833 17.8633C118.589 17.3848 118.467 16.8184 118.467 16.1641C118.467 15.5781 118.594 15.0264 118.848 14.5088C119.111 13.9814 119.482 13.5225 119.961 13.1318C120.449 12.7314 121.035 12.4189 121.719 12.1943C122.412 11.9697 123.188 11.8574 124.048 11.8574C125.269 11.8574 126.313 12.0674 127.183 12.4873C128.062 12.8975 128.73 13.459 129.189 14.1719C129.658 14.8848 129.893 15.6904 129.893 16.5889H128.149C128.149 16.042 127.988 15.5244 127.666 15.0361C127.354 14.5479 126.89 14.1475 126.274 13.835C125.669 13.5225 124.927 13.3662 124.048 13.3662C123.14 13.3662 122.402 13.5029 121.836 13.7764C121.27 14.0498 120.854 14.3965 120.591 14.8164C120.337 15.2363 120.21 15.6709 120.21 16.1201C120.21 16.4717 120.264 16.7939 120.371 17.0869C120.488 17.3701 120.693 17.6338 120.986 17.8779C121.289 18.1221 121.719 18.3516 122.275 18.5664C122.832 18.7812 123.555 18.9912 124.443 19.1963C125.723 19.4795 126.768 19.8262 127.578 20.2363C128.398 20.6367 129.004 21.1348 129.395 21.7305C129.785 22.3164 129.98 23.0293 129.98 23.8691C129.98 24.5234 129.844 25.124 129.57 25.6709C129.297 26.208 128.901 26.6719 128.384 27.0625C127.876 27.4531 127.261 27.7559 126.538 27.9707C125.825 28.1855 125.024 28.293 124.136 28.293C122.798 28.293 121.665 28.0732 120.737 27.6338C119.819 27.1846 119.121 26.5986 118.643 25.876C118.174 25.1436 117.939 24.3672 117.939 23.5469H119.683C119.741 24.3672 120 25.0166 120.459 25.4951C120.918 25.9639 121.479 26.2959 122.144 26.4912C122.817 26.6865 123.481 26.7842 124.136 26.7842C125.034 26.7842 125.786 26.6523 126.392 26.3887C126.997 26.125 127.456 25.7783 127.769 25.3486C128.081 24.9189 128.237 24.4551 128.237 23.957Z" fill="url(#paint0_linear_4037_65)"/>
<path d="M-4.59844e-06 29.3L14.6784 3L15.6296 4.71998L2.79211 27.8025L19.227 27.8025L19.993 29.3L-4.59844e-06 29.3Z" fill="url(#paint1_linear_4037_65)"/>
<path d="M23.464 29.3L22.6322 27.8025L28.3941 27.8025L29.2222 29.3L23.464 29.3Z" fill="url(#paint2_linear_4037_65)"/>
<path d="M5.74231 26.3306L8.80238 20.8585C9.28806 21.2724 9.60642 21.4408 10.2345 21.7657L8.66342 24.5735L17.5753 24.5735L18.4741 26.3306L5.74231 26.3306Z" fill="url(#paint3_linear_4037_65)"/>
<path d="M11.6875 16.4575L15.3063 9.45383L18.9808 16.4575C16.2717 15.8377 14.2642 15.8261 11.6875 16.4575Z" fill="url(#paint4_linear_4037_65)"/>
<path d="M27.7597 26.3773L25.1062 21.6487L23.5728 22.6208L25.7338 26.3773L27.7597 26.3773Z" fill="url(#paint5_linear_4037_65)"/>
<path d="M24.4356 26.3773L22.051 26.3773L19.6534 22.1614C21.088 21.2987 21.8102 20.7144 22.5135 19.4698L16.0929 7.99767L16.8197 6.65234L24.5182 20.5197L21.9521 22.2006L24.4356 26.3773Z" fill="url(#paint6_linear_4037_65)"/>
<circle cx="14.9748" cy="19.4377" r="1.82639" fill="url(#paint7_linear_4037_65)"/>
<defs>
<linearGradient id="paint0_linear_4037_65" x1="83.5" y1="0" x2="83.5" y2="35" gradientUnits="userSpaceOnUse">
<stop stop-color="#FEFEFE"/>
<stop offset="1" stop-color="#595959"/>
</linearGradient>
<linearGradient id="paint1_linear_4037_65" x1="14.6111" y1="3" x2="14.6111" y2="29.3" gradientUnits="userSpaceOnUse">
<stop stop-color="white"/>
<stop offset="1" stop-color="white" stop-opacity="0.3"/>
</linearGradient>
<linearGradient id="paint2_linear_4037_65" x1="14.6111" y1="3" x2="14.6111" y2="29.3" gradientUnits="userSpaceOnUse">
<stop stop-color="white"/>
<stop offset="1" stop-color="white" stop-opacity="0.3"/>
</linearGradient>
<linearGradient id="paint3_linear_4037_65" x1="14.6111" y1="3" x2="14.6111" y2="29.3" gradientUnits="userSpaceOnUse">
<stop stop-color="white"/>
<stop offset="1" stop-color="white" stop-opacity="0.3"/>
</linearGradient>
<linearGradient id="paint4_linear_4037_65" x1="19.6412" y1="6.65235" x2="19.6412" y2="26.3773" gradientUnits="userSpaceOnUse">
<stop stop-color="white"/>
<stop offset="1" stop-color="white" stop-opacity="0.3"/>
</linearGradient>
<linearGradient id="paint5_linear_4037_65" x1="19.6412" y1="6.65235" x2="19.6412" y2="26.3773" gradientUnits="userSpaceOnUse">
<stop stop-color="white"/>
<stop offset="1" stop-color="white" stop-opacity="0.3"/>
</linearGradient>
<linearGradient id="paint6_linear_4037_65" x1="19.6412" y1="6.65235" x2="19.6412" y2="26.3773" gradientUnits="userSpaceOnUse">
<stop stop-color="white"/>
<stop offset="1" stop-color="white" stop-opacity="0.3"/>
</linearGradient>
<linearGradient id="paint7_linear_4037_65" x1="14.9748" y1="17.6113" x2="14.9748" y2="21.2641" gradientUnits="userSpaceOnUse">
<stop stop-color="white"/>
<stop offset="1" stop-color="white" stop-opacity="0.3"/>
</linearGradient>
</defs>
</svg>
