<svg width="30" height="30" viewBox="0 0 30 30" fill="none" xmlns="http://www.w3.org/2000/svg">
<path d="M14.9992 1.19922C7.40781 1.19922 1.19922 6.95781 1.19922 14.0992C1.19922 18.0039 3.07891 21.4703 5.99922 23.8305V29.193L6.88047 28.7242L11.2117 26.4742C12.4211 26.7977 13.6797 26.9992 14.9992 26.9992C22.5906 26.9992 28.7992 21.2406 28.7992 14.0992C28.7992 6.95781 22.5906 1.19922 14.9992 1.19922ZM14.9992 2.39922C21.9859 2.39922 27.5992 7.65391 27.5992 14.0992C27.5992 20.5445 21.9859 25.7992 14.9992 25.7992C13.7008 25.7992 12.4445 25.6117 11.268 25.2742L11.043 25.218L10.8367 25.3305L7.19922 27.2242V23.2867L6.97422 23.118C4.17578 20.9641 2.39922 17.7227 2.39922 14.0992C2.39922 7.65391 8.0125 2.39922 14.9992 2.39922Z" fill="white"/>
</svg>
