<svg width="100" height="100" viewBox="0 0 100 100" fill="none" xmlns="http://www.w3.org/2000/svg">
<path d="M69.9422 74H31.0344C25.8554 74 21 69.0799 21 63.8361V43.7025C21 41.2424 22.1006 38.9766 24.1074 37.2934C25.9848 35.7397 28.5096 34.8981 31.0344 34.8981C33.3003 34.8981 35.3719 33.4091 36.084 31.1433C36.9256 28.6832 39.1915 27 41.8457 27H59.1956C61.7851 27 64.1157 28.6832 64.9573 31.1433C65.7342 33.4091 67.741 34.8981 70.0069 34.8981C75.186 34.8981 78.876 38.5234 78.876 43.7025V63.8361C78.8113 68.6915 75.4449 74 69.9422 74ZM41.8457 28.0358C39.7094 28.0358 37.7672 29.3953 37.1198 31.4669C36.2135 34.1212 33.8182 35.9339 31.0992 35.9339C26.7617 35.9339 22.1006 38.9118 22.1006 43.7025V63.8361C22.1006 68.4972 26.438 72.8994 31.0992 72.8994H70.0069C74.7975 72.8994 77.7755 68.1736 77.7755 63.8361V43.7025C77.7755 39.0413 74.668 35.9339 70.0069 35.9339C67.2879 35.9339 64.8278 34.1212 63.9862 31.4669C63.2741 29.3953 61.3967 28.0358 59.2603 28.0358H41.8457ZM50.5207 63.2534C50.197 63.2534 49.8085 63.2534 49.4848 63.1887C43.9821 62.6708 39.5799 58.2686 39.062 52.7658C38.7383 49.3347 39.9683 45.9683 42.3636 43.573C44.759 41.1129 48.1253 39.9477 51.5565 40.2066C57.0592 40.7245 61.4614 45.1267 61.9793 50.6295C62.303 54.0606 61.073 57.427 58.6777 59.8223C56.4766 62.0882 53.5634 63.2534 50.5207 63.2534ZM50.5207 41.2424C47.7369 41.2424 45.0826 42.343 43.1405 44.3499C40.9394 46.551 39.8388 49.5937 40.0978 52.7011C40.551 57.7507 44.5 61.7645 49.5496 62.2176C49.8733 62.2176 50.197 62.2824 50.5207 62.2824C53.3044 62.2824 55.9587 61.1818 57.9008 59.1749C60.1019 56.9738 61.2025 53.9311 60.9435 50.8237C60.4904 45.7741 56.5413 41.7603 51.4917 41.3072C51.168 41.2424 50.8444 41.2424 50.5207 41.2424ZM66.511 42.7314C65.4105 42.7314 64.5689 41.8251 64.5689 40.7893C64.5689 39.6887 65.4752 38.8471 66.511 38.8471C67.6116 38.8471 68.4532 39.7534 68.4532 40.7893C68.5179 41.8251 67.6116 42.7314 66.511 42.7314ZM66.511 39.8182C65.9931 39.8182 65.6047 40.2066 65.6047 40.7245C65.6047 41.2424 65.9931 41.6309 66.511 41.6309C67.0289 41.6309 67.4174 41.2424 67.4174 40.7245C67.4174 40.2713 67.0289 39.8182 66.511 39.8182Z" fill="white" stroke="white" stroke-width="2.5"/>
</svg>
