<svg width="100" height="100" viewBox="0 0 100 100" fill="none" xmlns="http://www.w3.org/2000/svg">
<path d="M68.4332 33.7685C67.7757 32.1012 66.8316 30.6859 65.6026 29.5221C64.3735 28.36 62.9042 27.4823 61.1928 26.8895C59.4814 26.2967 57.5726 26 55.4664 26H43.1711C39.8574 26 37.1711 28.6863 37.1711 32V49.0394H31V52.8576H37.1711V59.3248H31V63.1429H37.1711V73H41.6467V63.1423H57.7418V59.3242H41.6467V52.8576H55.4658C57.572 52.8576 59.4802 52.5609 61.1922 51.9681C62.9042 51.3753 64.3735 50.4987 65.602 49.3361C66.831 48.174 67.7751 46.7581 68.4326 45.0902C69.0911 43.4229 69.4202 41.5353 69.4202 39.4291C69.4202 37.3217 69.0912 35.4358 68.4332 33.7685ZM62.0482 46.67C60.1165 48.2492 57.5938 49.0394 54.4777 49.0394H44.6467C42.9898 49.0394 41.6467 47.6963 41.6467 46.0394V32.8182C41.6467 31.1613 42.9898 29.8182 44.6467 29.8182H54.4777C57.5938 29.8182 60.1165 30.6089 62.0482 32.1887C63.9793 33.7685 64.9452 36.182 64.9452 39.4297C64.9452 42.6768 63.9787 45.0902 62.0482 46.67Z" fill="white"/>
</svg>
