<svg width="24" height="24" viewBox="0 0 24 24" fill="none" xmlns="http://www.w3.org/2000/svg">
<path d="M14.7584 6C17.0368 6 18.248 6.27447 19 7C19.7264 7.75112 20 8.9621 20 11.2411V16.7589C20 19.0387 19.7264 20.2489 19 21C18.248 21.7263 17.0368 22 14.7584 22H9.2416C6.9632 22 5.752 21.7271 5 21C4.2736 20.2489 4 19.0379 4 16.7589V13.9992V11.2411C4 8.9621 4.2736 7.75192 5 7C5.752 6.27367 6.9632 6 9.2416 6" stroke="#D7D7D7" stroke-linecap="round" stroke-linejoin="round"/>
<path d="M12 1V14M12 1L15 3.5M12 1L9 3.5" stroke="#D7D7D7" stroke-width="1.2" stroke-linecap="round" stroke-linejoin="round"/>
</svg>
