<svg width="74" height="64" viewBox="0 0 74 64" fill="none" xmlns="http://www.w3.org/2000/svg">
<path d="M0 63.3333L36.7789 0L39.1621 4.1419L6.99605 59.7272H48.1759L50.0952 63.3333H0Z" fill="url(#paint0_linear_5293_323)"/>
<path d="M58.7923 63.3333L56.7081 59.7272H71.1454L73.2203 63.3333L58.7923 63.3333Z" fill="url(#paint1_linear_5293_323)"/>
<path d="M14.3882 56.1828L22.0556 43.0054C23.2725 44.002 24.0702 44.4076 25.644 45.1898L21.7074 51.9514H44.0375L46.2895 56.1828H14.3882Z" fill="url(#paint2_linear_5293_323)"/>
<path d="M29.2881 32.4089L38.3554 15.5432L47.5625 32.4089C40.7744 30.9161 35.7444 30.8882 29.2881 32.4089Z" fill="url(#paint3_linear_5293_323)"/>
<path d="M69.5593 56.2969L62.9104 44.9098L59.0684 47.2507L64.483 56.2969H69.5593Z" fill="url(#paint4_linear_5293_323)"/>
<path d="M61.2304 56.2969H55.2553L49.2478 46.1443C52.8423 44.0668 54.652 42.6599 56.4143 39.6628L40.3265 12.0366L42.1476 8.79688L61.4373 42.191L55.0074 46.2388L61.2304 56.2969Z" fill="url(#paint5_linear_5293_323)"/>
<ellipse cx="37.5255" cy="39.5837" rx="4.57627" ry="4.39815" fill="url(#paint6_linear_5293_323)"/>
<defs>
<linearGradient id="paint0_linear_5293_323" x1="36.6102" y1="0" x2="36.6102" y2="63.3333" gradientUnits="userSpaceOnUse">
<stop stop-color="white"/>
<stop offset="1" stop-color="white" stop-opacity="0.3"/>
</linearGradient>
<linearGradient id="paint1_linear_5293_323" x1="36.6102" y1="0" x2="36.6102" y2="63.3333" gradientUnits="userSpaceOnUse">
<stop stop-color="white"/>
<stop offset="1" stop-color="white" stop-opacity="0.3"/>
</linearGradient>
<linearGradient id="paint2_linear_5293_323" x1="36.6102" y1="0" x2="36.6102" y2="63.3333" gradientUnits="userSpaceOnUse">
<stop stop-color="white"/>
<stop offset="1" stop-color="white" stop-opacity="0.3"/>
</linearGradient>
<linearGradient id="paint3_linear_5293_323" x1="49.2171" y1="8.79688" x2="49.2171" y2="56.2969" gradientUnits="userSpaceOnUse">
<stop stop-color="white"/>
<stop offset="1" stop-color="white" stop-opacity="0.3"/>
</linearGradient>
<linearGradient id="paint4_linear_5293_323" x1="49.2171" y1="8.79688" x2="49.2171" y2="56.2969" gradientUnits="userSpaceOnUse">
<stop stop-color="white"/>
<stop offset="1" stop-color="white" stop-opacity="0.3"/>
</linearGradient>
<linearGradient id="paint5_linear_5293_323" x1="49.2171" y1="8.79688" x2="49.2171" y2="56.2969" gradientUnits="userSpaceOnUse">
<stop stop-color="white"/>
<stop offset="1" stop-color="white" stop-opacity="0.3"/>
</linearGradient>
<linearGradient id="paint6_linear_5293_323" x1="37.5255" y1="35.1855" x2="37.5255" y2="43.9818" gradientUnits="userSpaceOnUse">
<stop stop-color="white"/>
<stop offset="1" stop-color="white" stop-opacity="0.3"/>
</linearGradient>
</defs>
</svg>
