<svg width="132" height="119" viewBox="0 0 132 119" fill="none" xmlns="http://www.w3.org/2000/svg">
<path d="M0 118.292L66.0207 0L70.2988 7.73613L12.5584 111.557H86.4792L89.9244 118.292H0Z" fill="url(#paint0_linear_6326_335)"/>
<path d="M105.536 118.292L101.795 111.557H127.711L131.436 118.292L105.536 118.292Z" fill="url(#paint1_linear_6326_335)"/>
<path d="M25.8278 104.937L39.5914 80.3242C41.7759 82.1857 43.2078 82.9432 46.0328 84.4042L38.9664 97.0333H79.0505L83.093 104.937H25.8278Z" fill="url(#paint2_linear_6326_335)"/>
<path d="M124.864 105.149L112.928 83.8804L106.032 88.2527L115.751 105.149H124.864Z" fill="url(#paint3_linear_6326_335)"/>
<path d="M109.913 105.149H99.1869L88.4031 86.1862C94.8553 82.3059 98.1039 79.6781 101.267 74.0802L72.3887 22.4807L75.6576 16.4297L110.284 78.8023L98.7419 86.3626L109.913 105.149Z" fill="url(#paint4_linear_6326_335)"/>
<path d="M60.1484 41.7706L67.3885 28.4043L74.0717 41.7706C68.5572 39.9223 65.641 40.0362 60.1484 41.7706Z" fill="url(#paint5_linear_6326_335)"/>
<path d="M53.3317 77.6364C54.0574 77.9783 54.795 78.3021 55.3571 78.9235C55.4131 78.9851 55.4682 79.0458 55.5242 79.1075C55.5251 79.1084 55.5259 79.1101 55.5276 79.111C56.3983 79.9068 57.1266 80.8494 57.9354 81.7278C58.7629 82.6252 59.8074 82.8595 60.9248 82.5975C61.8744 82.3753 62.7901 81.9995 63.7209 81.6923C63.7185 81.661 63.7158 81.6306 63.7133 81.5994C63.0274 81.3122 62.3229 81.0621 61.6599 80.7262C59.9492 79.8595 58.3678 78.7692 56.992 77.4103C56.3737 76.7995 55.7989 76.1424 55.2746 75.4454C54.744 74.7402 54.3117 73.9777 53.8261 73.2421C53.6938 73.0416 53.5548 72.7977 53.2487 72.9018C52.3628 73.2013 51.4836 73.5173 50.7104 74.071C50.2831 74.3765 49.8575 74.6724 49.6142 75.1741C49.6133 75.175 49.6133 75.1758 49.6133 75.1767C49.5658 75.339 49.5633 75.5108 49.6251 75.6671C49.6794 75.8016 49.7752 75.9127 49.8846 76.0073C49.8854 76.0082 49.8863 76.0082 49.887 76.0091C49.948 76.0542 50.0117 76.0942 50.0769 76.1279C50.455 76.3241 50.8348 76.5193 51.2164 76.7085C51.2181 76.7094 51.2189 76.7094 51.2198 76.7103C51.2486 76.7216 51.2774 76.7337 51.3062 76.745C51.9828 77.0158 52.6576 77.2978 53.3088 77.6259C53.3165 77.6294 53.324 77.6329 53.3317 77.6364Z" fill="url(#paint6_linear_6326_335)"/>
<path d="M53.5411 63.1565C53.5895 63.1814 53.6437 63.2037 53.6972 63.2091C54.1619 63.258 54.6292 63.2875 55.0921 63.3524C55.5111 63.4121 55.9266 63.5012 56.3405 63.5929C56.6297 63.6579 56.9128 63.7505 57.2368 63.8413C57.2241 63.7193 57.2275 63.6623 57.2113 63.6134C56.7804 62.303 56.2595 61.0154 55.9745 59.6572C55.8991 59.2976 55.8429 58.9073 55.9892 58.5725C56.175 58.1471 56.6507 57.9291 57.0965 57.9295C57.5286 57.9299 57.903 58.2427 58.3241 58.2305C58.7484 58.2182 59.1374 57.861 59.3463 57.4984C59.6272 57.0108 59.7274 56.4327 59.9607 55.9181C60.2615 55.255 60.8009 54.7261 61.4324 54.4181C62.2355 54.0263 62.7445 54.2078 63.5635 54.2763C63.8845 54.3032 64.2225 54.2455 64.4849 54.0493C65.6017 53.2145 64.1666 52.6079 63.5341 52.3569C62.4708 51.9349 61.2602 51.9775 60.1907 52.3527C58.7582 52.8552 57.5489 53.8946 56.5177 55.0534C55.4865 56.2122 54.6014 57.5059 53.5906 58.6844C53.2124 59.1254 52.8115 59.5577 52.5527 60.0852C52.0103 61.1902 52.482 62.6018 53.5411 63.1565Z" fill="url(#paint7_linear_6326_335)"/>
<path d="M63.4243 55.6065C62.6447 55.6126 61.9251 55.8835 61.4755 56.5196C60.9642 57.2436 60.7776 57.4494 61.4998 58.1135C61.7559 58.3475 62.0484 58.541 62.3235 58.753C62.3166 58.7714 62.3088 58.79 62.3011 58.8084C61.7594 58.6861 61.2178 58.5638 60.6508 58.4372C60.5249 58.5919 60.3704 58.7837 60.1855 59.0116C61.2776 59.2983 62.2524 59.7364 63.4139 59.9132C63.2889 59.6044 63.2168 59.3951 63.1222 59.1963C62.8409 58.6016 62.7507 58.0087 63.2021 57.4651C63.4052 57.2205 63.65 56.9875 63.9217 56.8326C64.4799 56.5151 65.0692 56.253 65.6855 55.9485C65.5701 55.8896 65.4685 55.8289 65.3617 55.7841C64.7351 55.5228 64.0745 55.602 63.4243 55.6065Z" fill="url(#paint8_linear_6326_335)"/>
<path d="M69.4345 56.3787C69.4328 56.3778 69.432 56.377 69.4303 56.377C69.1152 56.3768 68.8023 56.4346 68.4812 56.4389C68.1035 56.444 67.7259 56.4156 67.3483 56.4341C66.295 56.4858 65.0304 56.8875 64.2082 57.5885C63.9842 57.7795 63.7986 58.0325 63.7401 58.3251C63.664 58.706 63.8184 59.1121 64.0877 59.3858C64.6538 59.9613 65.5781 59.9719 66.3141 59.851C66.5372 59.8144 66.7733 59.7471 66.9157 59.5672C67.0767 59.3641 67.0682 59.0487 66.9171 58.8377C66.7661 58.6268 66.4945 58.5238 66.2411 58.5544C65.8268 58.6045 65.6215 58.9274 65.4049 59.2478C65.3462 59.1053 65.3657 58.9379 65.4301 58.7981C65.4945 58.6582 65.5995 58.5421 65.7121 58.4393C66.0094 58.1675 66.3715 57.971 66.7577 57.8718C67.0243 57.8032 67.3223 57.785 67.5592 57.9279C67.7369 58.0351 67.8616 58.2297 67.887 58.4395C67.9186 58.7018 67.7589 58.9797 67.6498 59.2034C67.6488 59.2052 67.6488 59.2061 67.6488 59.2069C67.6455 59.3303 67.735 59.3522 67.8485 59.332C67.8493 59.332 67.851 59.3311 67.8535 59.3303C67.8545 59.3311 67.8552 59.3294 67.8562 59.3294C68.3163 59.1502 68.7561 58.9212 69.2036 58.7125C69.5008 58.5739 70.2408 58.4101 69.9328 57.9166C69.8746 57.8232 69.7939 57.7473 69.7248 57.6622C69.582 57.4865 69.4921 57.2683 69.4615 57.0423C69.4513 56.9674 69.4754 56.8334 69.4886 56.7039C69.5032 56.5628 69.5047 56.4267 69.4345 56.3787Z" fill="url(#paint9_linear_6326_335)"/>
<path d="M61.9506 65.9832C61.8913 66.2717 61.8574 66.5261 62.1849 66.7466C62.7234 67.1101 63.2218 67.5363 63.7176 67.9599C64.0566 68.2493 64.1185 68.2292 64.42 67.9015C64.8932 67.3882 65.3942 66.8958 65.9179 66.4338C66.5497 65.8777 67.2398 65.387 67.8619 64.8213C68.3629 64.3673 68.8082 63.8496 69.2657 63.3493C70.0055 62.5379 70.6232 61.6419 71.0685 60.6353C71.1682 60.4097 71.1625 60.1547 71.1847 59.9131C71.1667 60.1098 70.1229 60.5452 69.9427 60.6325C69.4867 60.8531 69.0138 61.0383 68.53 61.188C67.5606 61.4879 66.5475 61.6447 65.5331 61.6584C63.4131 61.687 61.72 61.0214 59.9049 60.0477C59.5136 59.8376 58.9055 60.0171 58.7565 60.3945C58.6057 60.778 58.5586 61.1824 58.6902 61.5833C58.8654 62.1167 59.0553 62.6441 59.2375 63.1739C59.4736 63.8642 59.7062 64.5562 59.945 65.2457C59.966 65.3058 60.0016 65.3781 60.053 65.4087C60.487 65.6649 60.9261 65.9133 61.4054 66.1878C61.7635 64.6224 61.0881 63.3996 60.2996 62.1933C60.7422 62.4731 61.1527 62.7668 61.5378 63.0911C62.0667 63.5373 62.3028 64.1256 62.214 64.8116C62.1624 65.2066 62.0299 65.591 61.9506 65.9832ZM59.9613 60.9358C60.1835 61.0239 60.4258 61.0805 60.6236 61.2069C61.6736 61.8763 62.7672 62.4202 63.9844 62.7392C65.0788 63.0268 66.1698 63.0529 67.2729 62.9362C67.7339 62.8874 68.1861 62.7584 68.7072 62.6521C68.4561 63.2639 67.9735 63.5506 67.5082 63.7303C66.8721 63.9769 66.1672 64.1939 65.4988 64.1731C64.3653 64.1382 63.2847 63.8401 62.3994 63.0008C61.6369 62.2772 60.7795 61.6532 59.9613 60.9358Z" fill="url(#paint10_linear_6326_335)"/>
<path d="M65.9725 68.7808C65.9792 68.7754 65.9858 68.7699 65.9923 68.7643C66.138 68.6383 66.2438 68.4431 66.3638 68.2921C66.8189 67.7197 67.3328 67.1549 67.9182 66.7251C68.4342 66.3464 69.08 66.1323 69.6488 65.8325C70.8722 65.1878 72.0613 64.3685 72.8175 63.149C73.3605 62.2734 73.6433 61.2507 73.8317 60.2275C73.9291 59.6977 74.0017 59.1401 73.8411 58.6273C73.69 58.1447 72.618 57.1328 72.1451 57.7489C71.8415 58.1444 72.3521 58.9414 72.3831 59.3676C72.4442 60.2099 72.2467 61.0679 71.8836 61.819C71.3091 63.0076 70.3649 63.9557 69.3867 64.8132C68.6504 65.4587 67.8823 66.0678 67.1855 66.7605C66.5829 67.3596 65.7927 68.0288 65.6855 68.9485C65.6923 68.8994 65.9303 68.8145 65.9725 68.7808Z" fill="url(#paint11_linear_6326_335)"/>
<path d="M66.6526 70.9048C67.7763 71.4929 68.9318 72.0154 70.0921 72.533C70.4752 72.7039 70.8997 72.8356 71.3182 72.8687C71.7196 72.9005 72.1156 72.8416 72.4638 72.6399C72.9482 72.3595 73.2529 71.8498 73.4667 71.3337C73.8066 70.5125 73.9612 69.618 73.9313 68.731C73.91 68.0972 73.8359 66.715 73.2834 66.2788C73.0392 66.0859 72.9624 66.2763 72.7074 66.4644C71.755 67.1669 70.628 67.5761 69.561 68.0669C69.1149 68.2721 65.6475 70.3817 66.6526 70.9048Z" fill="url(#paint12_linear_6326_335)"/>
<path d="M56.4909 69.05C57.3476 69.248 58.197 69.4942 59.0084 69.8414C59.417 70.0164 59.8154 70.217 60.1961 70.4487C60.5691 70.6756 60.8459 70.9722 61.1704 71.2631C61.2315 71.3179 61.3565 71.3745 61.2618 71.4445C61.2117 71.4815 60.6203 71.1567 60.5368 71.1213C60.2831 71.0138 60.0273 70.9115 59.7697 70.8142C59.2545 70.6194 58.732 70.4449 58.2037 70.2912C57.1857 69.9947 56.1585 69.8075 55.1154 69.6456C54.9274 69.6164 54.5352 69.6271 54.379 69.4996C54.3874 69.5518 54.3892 69.5821 54.3977 69.6047C54.3993 69.6082 54.401 69.6117 54.4028 69.6151C54.8739 70.5771 55.5497 71.4453 56.1983 72.2833C56.8331 73.1035 57.5119 73.8879 58.2304 74.6323C58.9634 75.392 59.7377 76.1101 60.5486 76.782C60.9583 77.1214 61.3772 77.4491 61.8049 77.7644C62.2128 78.0652 62.6312 78.3007 63.0548 78.5672C63.9366 79.1214 64.8957 79.5054 65.8948 79.7781C66.2097 79.8644 66.5473 79.9187 66.8973 79.9434C67.9763 79.9707 68.5651 79.889 69.5456 79.5923C70.7903 79.1732 71.9045 78.4011 72.4758 77.305C72.7264 76.8239 72.9832 75.4219 72.4034 75.0112C72.3336 74.9617 72.2516 74.9266 72.1559 74.9093C67.7429 74.1074 64.2366 71.7007 60.5832 69.1724C60.1457 68.9118 59.6988 68.6682 59.2401 68.4466C58.2674 67.9769 57.2345 67.6219 56.1668 67.4697C55.1526 67.3251 54.1179 67.3206 53.1383 67.6674C52.7851 67.7924 52.5611 67.9121 52.3262 68.2008C52.9703 68.4317 53.7148 68.5011 54.3863 68.6268C55.0896 68.7587 55.7934 68.8888 56.4909 69.05Z" fill="url(#paint13_linear_6326_335)"/>
<path d="M79.224 66.338C78.8421 66.583 78.6077 67.0049 78.3889 67.4096C78.0829 67.9753 75.0577 73.9927 74.7207 73.8224C75.7952 74.3698 75.8718 75.3211 75.5386 76.4125C75.6211 76.4013 75.6538 76.403 75.6809 76.3917C76.9017 75.8875 77.8131 74.9398 78.7943 74.0899C79.3168 73.6368 79.8452 73.1881 80.3981 72.7767C81.5189 71.944 82.7643 71.3646 84.0837 70.947C84.5557 70.798 84.6643 70.5139 84.4043 70.0772C84.2024 69.7367 83.9575 69.4231 83.7362 69.094C83.2591 68.3828 82.6062 67.8629 81.9582 67.3337C81.3464 66.834 80.0161 65.8297 79.224 66.338Z" fill="url(#paint14_linear_6326_335)"/>
<path d="M69.8618 56.0436C70.4641 56.0653 71.2906 56.0023 71.4004 55.974C72.1519 55.7808 72.7791 55.3152 73.5557 55.1843C74.4605 55.0319 75.3875 55.1294 76.1863 55.6322C76.8937 56.0774 77.5875 56.5487 78.2839 57.0127C78.3519 57.0578 78.3978 57.1371 78.5236 57.2786C78.2048 57.2173 77.9744 57.2047 77.7652 57.1262C77.1258 56.8856 76.5077 56.5684 75.8543 56.3836C75.4517 56.27 75.0181 56.357 74.6084 56.3642C74.6495 56.5847 74.7729 56.6704 74.9194 56.8313C75.0895 57.0181 75.2411 57.2237 75.3718 57.4432C75.6332 57.8822 75.811 58.3778 75.8845 58.8913C75.9627 59.4378 75.9225 60.0018 75.7746 60.5314C75.6195 61.0872 75.3186 61.5774 75.1117 62.1113C74.9535 62.5194 74.7914 62.9267 74.6681 63.3467C74.4453 64.101 74.6923 64.7885 74.9892 65.4608C75.0436 65.5833 75.1126 65.6996 75.1789 65.8266C75.3666 65.2551 75.5034 64.7108 75.7827 64.1738C76.0617 63.6379 76.3921 63.1349 76.7069 62.6224C77.2255 61.7781 77.7135 60.8698 77.8096 59.8675C77.8474 59.4729 77.9214 59.0216 78.3831 58.9951C78.5094 59.4241 78.6257 59.8505 78.6257 60.3044C78.6282 60.3215 78.6291 60.3395 78.6308 60.3566C78.7365 61.4198 77.8512 62.2604 77.3376 63.0626C76.7608 63.9637 76.2672 64.9292 75.9166 65.9544C75.8676 66.0978 75.8215 66.2422 75.7782 66.3877C75.5988 66.9916 75.4712 67.6111 75.37 68.2347C75.3185 68.5531 75.2739 68.8726 75.2325 69.1927C75.1978 69.461 75.0768 69.8682 75.1308 70.1269C75.2135 70.1097 75.2781 69.9374 75.3121 69.8556C75.5332 69.3231 75.7202 68.7715 75.9754 68.2579C76.551 67.096 77.1351 65.9388 77.7193 64.7823C78.2943 63.6441 79.0442 62.6391 79.7141 61.5654C80.4026 60.4617 80.9898 59.222 81.008 57.8992C81.0262 56.5763 80.3369 55.1703 79.1508 54.7577C77.5263 54.1926 75.7391 53.7954 74.034 53.669C72.2763 53.5387 69.6809 53.574 69.2237 55.8776C69.2028 55.9843 69.4895 56.0301 69.8618 56.0436Z" fill="url(#paint15_linear_6326_335)"/>
<path d="M83.3367 52.1103C83.332 52.0956 83.3264 52.0817 83.3215 52.0672C83.0446 51.4705 82.6398 50.9532 82.0391 50.6457C81.8161 50.5315 81.5825 50.4482 81.3431 50.3614C81.2852 50.3501 81.2266 50.3396 81.1666 50.3309C81.1468 50.3285 81.1271 50.3248 81.1074 50.3223C81.429 50.4085 81.7432 50.5181 82.0389 50.6697C82.6504 50.9827 83.0594 51.5003 83.3367 52.1103Z" fill="white"/>
<path d="M83.3367 52.1103C83.332 52.0956 83.3264 52.0817 83.3215 52.0672C83.0446 51.4705 82.6398 50.9532 82.0391 50.6457C81.8161 50.5315 81.5825 50.4482 81.3431 50.3614C81.2852 50.3501 81.2266 50.3396 81.1666 50.3309C81.1468 50.3285 81.1271 50.3248 81.1074 50.3223C81.429 50.4085 81.7432 50.5181 82.0389 50.6697C82.6504 50.9827 83.0594 51.5003 83.3367 52.1103Z" fill="url(#paint16_linear_6326_335)"/>
<defs>
<linearGradient id="paint0_linear_6326_335" x1="65.7179" y1="0" x2="65.7179" y2="118.292" gradientUnits="userSpaceOnUse">
<stop stop-color="white"/>
<stop offset="1" stop-color="white" stop-opacity="0.3"/>
</linearGradient>
<linearGradient id="paint1_linear_6326_335" x1="65.7179" y1="0" x2="65.7179" y2="118.292" gradientUnits="userSpaceOnUse">
<stop stop-color="white"/>
<stop offset="1" stop-color="white" stop-opacity="0.3"/>
</linearGradient>
<linearGradient id="paint2_linear_6326_335" x1="65.7179" y1="0" x2="65.7179" y2="118.292" gradientUnits="userSpaceOnUse">
<stop stop-color="white"/>
<stop offset="1" stop-color="white" stop-opacity="0.3"/>
</linearGradient>
<linearGradient id="paint3_linear_6326_335" x1="88.3482" y1="16.4297" x2="88.3482" y2="105.149" gradientUnits="userSpaceOnUse">
<stop stop-color="white"/>
<stop offset="1" stop-color="white" stop-opacity="0.3"/>
</linearGradient>
<linearGradient id="paint4_linear_6326_335" x1="88.3482" y1="16.4297" x2="88.3482" y2="105.149" gradientUnits="userSpaceOnUse">
<stop stop-color="white"/>
<stop offset="1" stop-color="white" stop-opacity="0.3"/>
</linearGradient>
<linearGradient id="paint5_linear_6326_335" x1="67.1101" y1="28.4043" x2="67.2567" y2="55.9848" gradientUnits="userSpaceOnUse">
<stop stop-color="white"/>
<stop offset="1" stop-color="white" stop-opacity="0.3"/>
</linearGradient>
<linearGradient id="paint6_linear_6326_335" x1="56.6495" y1="72.877" x2="56.6495" y2="82.6984" gradientUnits="userSpaceOnUse">
<stop stop-color="white"/>
<stop offset="1" stop-color="white" stop-opacity="0.3"/>
</linearGradient>
<linearGradient id="paint7_linear_6326_335" x1="58.6119" y1="52.0557" x2="58.6119" y2="63.8413" gradientUnits="userSpaceOnUse">
<stop stop-color="white"/>
<stop offset="1" stop-color="white" stop-opacity="0.3"/>
</linearGradient>
<linearGradient id="paint8_linear_6326_335" x1="62.9355" y1="55.5918" x2="62.9355" y2="59.9132" gradientUnits="userSpaceOnUse">
<stop stop-color="white"/>
<stop offset="1" stop-color="white" stop-opacity="0.3"/>
</linearGradient>
<linearGradient id="paint9_linear_6326_335" x1="66.8636" y1="56.377" x2="66.8636" y2="59.9127" gradientUnits="userSpaceOnUse">
<stop stop-color="white"/>
<stop offset="1" stop-color="white" stop-opacity="0.3"/>
</linearGradient>
<linearGradient id="paint10_linear_6326_335" x1="64.899" y1="59.9131" x2="64.899" y2="68.1631" gradientUnits="userSpaceOnUse">
<stop stop-color="white"/>
<stop offset="1" stop-color="white" stop-opacity="0.3"/>
</linearGradient>
<linearGradient id="paint11_linear_6326_335" x1="69.8105" y1="57.5557" x2="69.8105" y2="68.9485" gradientUnits="userSpaceOnUse">
<stop stop-color="white"/>
<stop offset="1" stop-color="white" stop-opacity="0.3"/>
</linearGradient>
<linearGradient id="paint12_linear_6326_335" x1="70.2028" y1="66.1982" x2="70.2028" y2="72.8768" gradientUnits="userSpaceOnUse">
<stop stop-color="white"/>
<stop offset="1" stop-color="white" stop-opacity="0.3"/>
</linearGradient>
<linearGradient id="paint13_linear_6326_335" x1="62.5404" y1="67.377" x2="62.5404" y2="79.9483" gradientUnits="userSpaceOnUse">
<stop stop-color="white"/>
<stop offset="1" stop-color="white" stop-opacity="0.3"/>
</linearGradient>
<linearGradient id="paint14_linear_6326_335" x1="79.6314" y1="66.1982" x2="79.6314" y2="76.4125" gradientUnits="userSpaceOnUse">
<stop stop-color="white"/>
<stop offset="1" stop-color="white" stop-opacity="0.3"/>
</linearGradient>
<linearGradient id="paint15_linear_6326_335" x1="75.1155" y1="53.627" x2="75.1155" y2="70.1269" gradientUnits="userSpaceOnUse">
<stop stop-color="white"/>
<stop offset="1" stop-color="white" stop-opacity="0.3"/>
</linearGradient>
<linearGradient id="paint16_linear_6326_335" x1="81.3551" y1="58.2744" x2="85.8032" y2="57.9364" gradientUnits="userSpaceOnUse">
<stop stop-color="#EF0E37"/>
<stop offset="1" stop-color="#FF0000"/>
</linearGradient>
</defs>
</svg>
