<svg width="64" height="64" viewBox="0 0 64 64" fill="none" xmlns="http://www.w3.org/2000/svg">
<rect width="64" height="64" rx="11" fill="#2C2C2E"/>
<path d="M32 12C26.6957 12 21.6086 14.1071 17.8579 17.8579C14.1071 21.6086 12 26.6957 12 32C12 37.3043 14.1071 42.3914 17.8579 46.1421C21.6086 49.8929 26.6957 52 32 52C37.3043 52 42.3914 49.8929 46.1421 46.1421C49.8929 42.3914 52 37.3043 52 32C52 26.6957 49.8929 21.6086 46.1421 17.8579C42.3914 14.1071 37.3043 12 32 12Z" fill="#3F3F3F"/>
<path d="M32 13.25C27.0272 13.25 22.2581 15.2254 18.7417 18.7417C15.2254 22.2581 13.25 27.0272 13.25 32C13.25 36.9728 15.2254 41.7419 18.7417 45.2583C22.2581 48.7746 27.0272 50.75 32 50.75C36.9728 50.75 41.7419 48.7746 45.2583 45.2583C48.7746 41.7419 50.75 36.9728 50.75 32C50.75 27.0272 48.7746 22.2581 45.2583 18.7417C41.7419 15.2254 36.9728 13.25 32 13.25Z" fill="#494949"/>
<path d="M41.95 23L38.204 42.126C38.204 42.126 38.043 43 36.959 43C36.383 43 36.086 42.726 36.086 42.726L27.972 35.993L24.002 33.992L18.907 32.637C18.907 32.637 18 32.375 18 31.625C18 31 18.933 30.702 18.933 30.702L40.249 22.234C40.249 22.234 40.9 21.999 41.375 22C41.667 22 42 22.125 42 22.5C42 22.75 41.95 23 41.95 23Z" fill="white"/>
<path d="M31.0001 38.5052L27.5741 41.8792C27.5741 41.8792 27.4251 41.9942 27.2261 41.9992C27.1571 42.0012 27.0831 41.9902 27.0071 41.9562L27.9711 35.9912L31.0001 38.5052Z" fill="#B0BEC5"/>
<path d="M37.897 26.1959C37.728 25.9759 37.416 25.9359 37.196 26.1029L24 33.9999C24 33.9999 26.106 39.8919 26.427 40.9119C26.749 41.9329 27.007 41.9569 27.007 41.9569L27.971 35.9919L37.803 26.8959C38.023 26.7289 38.064 26.4159 37.897 26.1959Z" fill="#CFD8DC"/>
</svg>
