<svg width="33" height="33" viewBox="0 0 33 33" fill="none" xmlns="http://www.w3.org/2000/svg">
<g clip-path="url(#clip0_1665_36)">
<path d="M10.3923 6C0 12 0 12 6 22.3923C12 32.7846 12 32.7846 22.3923 26.7846C28.1081 23.4846 30.0846 16.1081 26.7846 10.3923C23.4846 4.67654 16.1081 2.7 10.3923 6ZM21.6423 25.4856C16.6194 28.3856 10.199 26.6653 7.29904 21.6423C2.04904 12.549 2.04904 12.549 11.1423 7.29904C16.158 4.40322 22.5856 6.11936 25.4856 11.1423C28.3856 16.1653 26.6653 22.5856 21.6423 25.4856Z" fill="white"/>
<path d="M20.538 11.5564C20.4113 11.562 20.2881 11.5972 20.1769 11.6417C20.0669 11.686 19.4335 11.9563 18.4981 12.3562C17.5627 12.7562 16.3468 13.2769 15.1414 13.7933C12.7308 14.8262 10.3619 15.8424 10.3619 15.8424L10.3792 15.8358C10.3792 15.8358 10.2362 15.8836 10.0912 15.9846C10.0188 16.0351 9.94079 16.1002 9.87694 16.1953C9.8131 16.2903 9.76643 16.425 9.78401 16.5675C9.8458 17.068 10.3644 17.2099 10.3644 17.2099L10.3665 17.2109L12.6811 18.0031C12.7401 18.2 13.3831 20.3461 13.5246 20.8006C13.6027 21.0519 13.6758 21.1969 13.7521 21.2958C13.7902 21.3452 13.8302 21.3835 13.8744 21.4115C13.892 21.4227 13.9105 21.431 13.9288 21.4385H13.9298C13.932 21.4395 13.9342 21.4395 13.9364 21.4405L13.9303 21.439C13.9346 21.4407 13.9387 21.4436 13.943 21.4451C13.9513 21.448 13.9563 21.4479 13.9669 21.4501C14.2319 21.5427 14.4513 21.3709 14.4513 21.3709L14.4605 21.3638L15.8823 20.045L18.1898 21.8442L18.2188 21.8574C18.6227 22.0367 18.9879 21.9367 19.1902 21.7721C19.3925 21.6075 19.4721 21.3953 19.4721 21.3953L19.4807 21.373L21.1763 12.5355C21.2197 12.3378 21.2258 12.1669 21.1849 12.0124C21.144 11.858 21.0446 11.7238 20.9198 11.6494C20.7951 11.575 20.6646 11.5509 20.538 11.5564ZM20.5517 12.0851C20.6031 12.0827 20.6412 12.0886 20.6532 12.0957C20.6652 12.1029 20.6706 12.1019 20.6822 12.1455C20.6937 12.189 20.7 12.2807 20.6685 12.4243L20.6675 12.4273L18.9815 21.2135C18.9775 21.2223 18.9424 21.3036 18.8622 21.3689C18.7804 21.4355 18.6893 21.4874 18.4478 21.3862L15.9245 19.4184L15.8534 19.3625L15.8519 19.364L15.0973 18.7978L19.338 13.8086C19.3706 13.7703 19.3914 13.7235 19.3979 13.6737C19.4044 13.6239 19.3964 13.5732 19.3747 13.5279C19.3531 13.4825 19.3188 13.4445 19.2759 13.4182C19.2331 13.392 19.1836 13.3787 19.1334 13.38C19.0843 13.3813 19.0366 13.3964 18.9957 13.4237L12.8593 17.5146L10.5412 16.7209C10.5412 16.7209 10.311 16.5928 10.3 16.5035C10.2993 16.4986 10.2966 16.5031 10.3086 16.4853C10.3205 16.4674 10.3506 16.4374 10.3883 16.4111C10.4637 16.3586 10.5498 16.3268 10.5498 16.3268L10.5584 16.3238L10.5671 16.3202C10.5671 16.3202 12.9361 15.304 15.3466 14.2712C16.5519 13.7548 17.7676 13.2344 18.7027 12.8346C19.6376 12.4349 20.3132 12.1472 20.3704 12.1242C20.4355 12.0981 20.5002 12.0874 20.5517 12.0851ZM17.7394 14.8862L14.5234 18.6699L14.5219 18.6714C14.5169 18.6774 14.5121 18.6837 14.5077 18.6902C14.5026 18.6972 14.4978 18.7045 14.4935 18.712C14.4754 18.7427 14.4638 18.7767 14.4594 18.8121C14.4594 18.8127 14.4594 18.8134 14.4594 18.8141L14.0405 20.6981C14.0335 20.6777 14.0287 20.6703 14.0212 20.6463V20.6458C13.8881 20.2182 13.2815 18.1942 13.1975 17.9142L17.7394 14.8862ZM14.8865 19.2899L15.4644 19.7236L14.6153 20.5107L14.8865 19.2899Z" fill="white"/>
</g>
<defs>
<clipPath id="clip0_1665_36">
<rect width="24" height="24" fill="white" transform="translate(0 12) rotate(-30)"/>
</clipPath>
</defs>
</svg>
