<svg width="425" height="100" viewBox="0 0 425 100" fill="none" xmlns="http://www.w3.org/2000/svg">
<path d="M44.4919 74.4442C44.4919 74.4442 45.7191 73.9421 45.8307 73.5796L45.6634 73.1723C45.549 72.9046 45.563 72.6145 45.7889 72.4583L47.1109 71.5407L49.3227 71.9674C49.3227 71.9674 48.9211 71.4654 48.9601 70.796L46.8515 70.3498L44.8601 71.5631C44.5126 71.8207 44.2615 72.1873 44.1467 72.6044C44.032 73.0215 44.0602 73.4649 44.227 73.8641L44.4919 74.447L44.4919 74.4442ZM60.1299 80.2233C60.5232 80.2066 60.9639 80.201 61.4408 80.201C61.4408 80.201 62.5788 76.8679 62.6429 76.762C61.7977 76.3677 60.973 75.9311 60.1717 75.4538C60.5092 75.9614 61.3292 76.5388 61.1675 76.9851L60.1299 80.2233ZM60.8077 41.3393C59.1175 43.0183 57.497 43.6403 56.0494 43.7854C55.7844 43.8141 55.5182 43.829 55.2517 43.83H55.2154C54.6829 43.8299 54.1519 43.7739 53.6311 43.6627C53.5363 44.0392 53.4164 44.8286 53.7594 45.576C54.0662 46.2537 54.6882 46.7586 55.5975 47.0961L55.9043 47.216L55.9071 47.5451C55.9071 47.6427 55.9797 49.7792 58.3058 50.3733C58.6852 49.9828 59.031 49.6286 59.2821 49.3302C58.8079 48.2118 59.0589 47.0682 59.7479 46.5076C59.72 46.6275 59.4132 49.4306 61.6584 50.4737L62.0293 50.6494L61.9177 51.0427C61.8815 51.1626 61.134 53.8764 63.8533 54.8861L64.3331 55.0702L64.1183 55.536C64.0709 55.6392 63.0055 58.102 65.5156 59.5021H70.9572V55.1706C69.0216 54.9335 68.2043 53.3744 67.9923 52.2699C67.0914 52.1165 66.3969 51.7288 65.92 51.0957C64.7765 49.5895 65.7582 48.2089 65.7722 48.1336C65.7694 48.1447 65.7722 49.6118 66.6759 50.5211C67.1249 50.9562 67.6549 51.2965 68.461 51.3718L68.8543 51.408L68.8877 51.8124C68.8961 51.8989 69.1109 53.8875 70.9573 54.1999L70.9545 45.3583C70.9545 43.9861 71.3534 42.6082 71.8331 41.3364H60.8071L60.8077 41.3393ZM46.1567 45.3919L46.0116 51.0204L46.6531 51.1208L48.2151 45.7182L47.4202 44.0559L46.1595 45.3919H46.1567ZM49.5427 66.2379C49.4998 66.2365 49.4576 66.2264 49.4188 66.2082C49.3799 66.19 49.3452 66.164 49.3167 66.1319C49.2882 66.0998 49.2666 66.0622 49.2532 66.0214C49.2398 65.9807 49.2348 65.9376 49.2387 65.8948C49.2411 65.8525 49.252 65.8112 49.2707 65.7732C49.2894 65.7351 49.3154 65.7012 49.3474 65.6734C49.3794 65.6456 49.4165 65.6245 49.4568 65.6113C49.497 65.598 49.5395 65.593 49.5817 65.5964C49.7658 65.6048 49.8941 65.7637 49.8885 65.9367C49.8821 66.0223 49.8422 66.1019 49.7775 66.1583C49.7127 66.2147 49.6284 66.2433 49.5427 66.2379ZM63.3817 71.2221C63.4291 71.2221 63.4849 71.2277 63.5351 71.2416C64.5113 71.5205 64.754 75.0292 66.4581 75.3416C66.6254 75.3779 66.7816 75.3862 66.9155 75.3862C67.4092 75.3862 67.702 75.177 68.02 74.8005C68.02 74.8005 67.1609 73.4534 66.5194 72.5413C65.6687 71.3475 65.0077 69.9056 63.4207 69.9056C63.3817 69.9056 63.337 69.9056 63.2952 69.9112C62.993 69.9234 62.7006 70.0221 62.4529 70.1957C61.9231 69.8453 61.3029 69.6563 60.6678 69.6518C59.6776 69.6518 58.9023 70.1092 58.5146 70.1092H58.5006L54.9584 69.7578C54.4034 69.702 53.9655 69.1442 53.8065 68.9266L53.7452 68.8318C53.7452 68.7342 53.7452 68.6366 53.7396 68.5501C53.6196 65.6466 51.3772 64.4054 50.5767 64.3831C50.5767 64.3831 50.6715 63.8309 50.4567 63.6217L49.6758 64.57L47.1098 63.2814L48.9395 65.4235L47.3915 67.1667C47.1962 67.3647 47.2213 67.6325 47.3022 67.7468L47.9716 68.3381L48.8195 67.8222C48.8614 67.7915 48.9395 67.7803 49.0343 67.7803C49.2686 67.7803 49.62 67.8417 49.9352 67.8417C50.2838 67.8417 50.5823 67.7692 50.6185 67.4428C50.5126 68.5194 49.514 70.3909 50.1695 71.8608L50.6548 72.9709L47.5226 72.5191L46.0555 74.9987C45.6036 75.8243 45.5311 76.7168 45.9662 77.2021L46.5157 77.891C46.5157 77.891 47.2855 77.0738 47.4557 76.5355L47.2074 76.2621C46.9982 76.0306 47.0094 75.8242 47.1377 75.576L48.0581 74.0475L51.7537 74.9205L51.949 74.5858C52.2 74.1675 52.5626 74.0447 52.9587 74.0447C53.1232 74.0447 53.2906 74.0643 53.4635 74.0921C54.1496 74.2288 55.2793 74.4101 56.4088 74.4101C57.65 74.4101 58.88 74.187 59.5354 73.4534C60.8742 75.442 63.5908 75.7572 63.3761 76.7697L62.6621 80.178C63.1362 80.1557 63.5909 80.125 64.0232 80.0664L64.7037 76.5214C64.7589 76.2204 64.8073 75.9182 64.8488 75.615C64.5866 75.3472 63.9535 74.7866 63.5937 74.1033C63.1167 73.18 63.3761 72.6976 62.9299 71.4983C62.9299 71.4983 63.0693 71.2194 63.3817 71.2194L63.3817 71.2221ZM96.1847 59.6191C93.3119 58.1967 91.4989 54.4313 91.0583 53.0757C90.5841 60.545 86.9443 65.7267 82.6909 70.7137C80.4819 73.302 79.7121 75.8179 79.7121 75.8179C79.7121 75.8179 80.1388 72.9674 82.0466 70.6469C86.0155 65.8719 89.7865 59.9249 90.0682 53.0469C90.2606 48.2495 89.0307 44.3587 87.1061 41.1519C88.1827 44.4905 88.0293 48.5822 84.3783 52.3999C84.3783 52.3999 91.6496 43.6755 81.486 34.7279C77.4194 31.3252 72.968 29.2221 70.678 27.7327C78.9534 30.4382 82.997 27.4593 82.997 27.4593C80.3529 29.7547 76.9306 29.7157 74.8081 29.3838C75.3854 29.6655 75.9851 29.9612 76.6266 30.3043C83.6078 34.1031 89.8786 40.3533 90.9496 49.0053V48.9383C92.57 57.4368 96.1848 59.6173 96.1848 59.6173L96.1847 59.6191ZM98.3101 49.7173C98.3743 49.7229 98.43 49.7229 98.4942 49.7229C102.385 49.7229 103.701 45.5475 103.701 45.5475H103.626C102.912 45.5475 97.1275 45.3801 93.0382 40.1728C90.3494 36.7506 88.1433 33.741 83.7862 32.5584L83.3566 32.4803L83.2646 32.0424C83.1447 31.3758 83.5993 30.751 84.6368 30.0789C90.6474 26.1351 86.5613 21.1035 86.5613 21.1035C86.5613 21.1035 84.8488 25.1254 81.0081 25.1254L80.7208 25.1198C80.2857 25.0975 79.8646 25.0835 79.4406 24.9915L78.7322 24.852C78.7322 24.852 79.8283 21.8676 77.1842 19.1315C75.1956 17.0619 72.7718 16.7105 71.3744 16.7105C70.6687 16.7105 70.2225 16.8026 70.2225 16.8026C71.5501 18.5402 72.5096 21.427 70.9756 23.2065C69.6508 24.735 66.4154 24.8103 66.4154 27.0918C66.4154 28.0568 67.3163 29.1837 68.934 30.1961C73.7982 33.2642 78.6261 37.3363 80.634 42.7941C83.1442 49.5996 80.316 54.1181 76.283 56.7091C76.283 56.7091 77.5493 57.875 79.3817 58.0256C79.7554 58.0618 80.1208 58.0786 80.4611 58.0786C84.3352 58.0786 86.3378 56.2573 86.3378 56.2573C86.3378 56.2573 86.0058 58.7731 83.9949 61.1076C82.1317 63.2608 79.6913 64.5326 75.9677 64.5856C75.9677 64.5856 75.8505 66.3149 77.499 67.8154C78.556 68.7609 80.991 69.0705 80.991 69.0705C80.991 69.0705 76.4279 69.9937 75.923 76.7462C75.6497 80.4055 74.7182 81.6746 74.7182 81.6746H74.799C85.387 81.6746 85.116 72.5765 85.116 72.5765C85.116 72.5765 85.8524 75.2708 88.806 75.9736C89.163 76.0684 89.5452 76.1047 89.9077 76.1047C90.8561 76.1047 91.6844 75.8815 91.6844 75.8815C91.6844 75.8815 90.1364 72.6126 91.6705 68.0412C92.9452 64.2452 92.7387 61.4338 92.7387 61.4338C92.7387 61.4338 94.1639 63.5954 97.7034 63.615H97.7397C98.5757 63.628 99.4015 63.4297 100.141 63.0387C100.88 62.6477 101.508 62.0766 101.968 61.3781C94.9088 58.4411 95.6061 48.9661 95.6061 48.9661C95.6061 48.9661 96.5209 49.6523 98.3088 49.7192L98.3101 49.7173ZM27.7751 70.7143C23.5217 65.7273 19.8818 60.5453 19.4021 53.0763C18.9642 54.4346 17.1541 58.1999 14.2841 59.6197C14.2841 59.6197 17.8933 57.4385 19.5137 48.9407V49.0076C20.5875 40.3557 26.8575 34.1056 33.8387 30.3096C34.4802 29.961 35.0827 29.6681 35.6545 29.3892C33.5347 29.7183 30.1097 29.7574 27.4684 27.4647C27.4684 27.4647 31.5126 30.4407 39.7844 27.7352C37.4973 29.2246 33.0458 31.3276 28.9814 34.7304C18.8154 43.6779 26.0863 52.4025 26.0863 52.4025C22.4325 48.5814 22.2819 44.4952 23.3585 41.1544C21.434 44.3619 20.2012 48.2529 20.402 53.0535C20.6781 59.9287 24.4462 65.8745 28.4069 70.6535C30.3258 72.9685 30.7581 75.819 30.7581 75.819C30.7581 75.819 29.9771 73.306 27.7737 70.7176L27.7751 70.7143ZM29.4765 69.0687C29.4765 69.0687 31.9115 68.7619 32.9685 67.8136C34.6141 66.3158 34.4998 64.5866 34.4998 64.5866C30.7735 64.5336 28.3358 63.2618 26.4642 61.1086C24.4616 58.7741 24.1269 56.2583 24.1269 56.2583C24.1269 56.2583 26.1295 58.0796 29.9981 58.0796C30.3467 58.0796 30.7093 58.0629 31.0803 58.0266C32.2249 57.9107 33.3079 57.4518 34.1874 56.7101C30.1487 54.119 27.3206 49.6005 29.828 42.7921C31.8362 37.3394 36.6614 33.2647 41.532 30.1941C43.1469 29.1844 44.045 28.0576 44.045 27.0926C44.045 24.8111 40.8152 24.7358 39.4904 23.2073C37.9564 21.4278 38.9186 18.5411 40.2435 16.8034C40.2435 16.8034 39.8 16.7114 39.0916 16.7114C37.697 16.7114 35.2733 17.0628 33.2818 19.1324C30.6321 21.8714 31.7338 24.8557 31.7338 24.8557L31.0253 24.9951C30.6042 25.0816 30.1774 25.0983 29.7423 25.1234L29.4634 25.1262C25.6144 25.1262 23.9046 21.1071 23.9046 21.1071C23.9046 21.1071 19.8241 26.1359 25.8346 30.0797C26.8665 30.7519 27.3212 31.3795 27.2012 32.0432L27.1092 32.4783L26.6713 32.5564C22.323 33.7418 20.1168 36.7513 17.4229 40.1736C13.334 45.3809 7.55526 45.5483 6.83786 45.5483H6.75977C6.75977 45.5483 8.07897 49.7237 11.9727 49.7237C12.034 49.7237 12.0898 49.7237 12.1568 49.7181C13.9446 49.654 14.8623 48.9678 14.8623 48.9678C14.8623 48.9678 15.554 58.4421 8.49746 61.3798C8.49746 61.3798 9.78326 63.6194 12.7287 63.6194H12.7621C16.3043 63.5971 17.7268 61.4355 17.7268 61.4355C17.7268 61.4355 17.5204 64.2497 18.7894 68.0429C20.3234 72.6171 18.7838 75.8804 18.7838 75.8804C18.7838 75.8804 19.6066 76.1036 20.5577 76.1036C20.9259 76.1036 21.3024 76.0701 21.6566 75.9753C24.6075 75.2724 25.3466 72.5782 25.3466 72.5782C25.3466 72.5782 25.0761 81.6763 35.6656 81.6763H35.7437C35.7437 81.6763 34.8149 80.4072 34.5444 76.7479C34.0424 69.9982 29.4737 69.0694 29.4737 69.0694L29.4765 69.0687ZM52.8415 35.5427H57.8341V37.258C57.2484 36.5384 56.1048 36.6862 56.1048 36.6862V39.1602C56.1048 39.1602 56.1438 40.3763 56.5734 40.9034H54.1022C54.5345 40.3763 54.5707 39.1602 54.5707 39.1602V36.6862C54.5707 36.6862 53.4327 36.5384 52.8414 37.258L52.8415 35.5427ZM47.4027 35.7993C47.5756 35.9862 47.7457 36.1898 47.9103 36.3934C47.9494 36.4408 47.9856 36.4826 48.0247 36.5384C48.1781 36.7392 48.3315 36.9568 48.4793 37.1743L48.5797 37.3222C48.7554 37.5899 48.9228 37.866 49.0901 38.1533C50.6186 40.7946 53.0618 42.3733 55.229 42.3761C57.4018 42.3733 59.8422 40.7946 61.3735 38.1533C61.5437 37.8605 61.7138 37.576 61.8923 37.3082C62.0959 36.9962 62.3137 36.6938 62.545 36.4017C62.7151 36.1898 62.8908 35.9834 63.0693 35.7937C63.1 35.7658 63.1251 35.7351 63.1558 35.71C63.9367 34.9123 64.86 34.3043 66.076 33.9668L65.5349 33.6517H65.507L63.3538 32.4021L61.1476 31.133L55.2458 34.3517L55.2291 34.3377L55.2207 34.3517L49.3189 31.133L47.1099 32.4021L44.9567 33.6517H44.9316L44.3877 33.9668C45.601 34.3015 46.527 34.904 47.3079 35.7044C47.3413 35.7323 47.3636 35.7714 47.4027 35.7993ZM55.229 15.6843C51.5753 15.6871 48.8335 16.8864 48.2366 18.3005L55.229 21.0618L62.2242 18.3005C61.6329 16.8864 58.8911 15.6871 55.229 15.6843ZM55.3043 88.8683H55.1648C52.9503 88.8822 49.8961 88.4276 48.429 87.9953L46.6607 92.7899C47.8266 93.2055 51.7759 94.0032 55.2373 94.0032C58.693 94.0032 62.6453 93.2055 63.8084 92.7899L62.0429 87.9981C60.5674 88.4276 57.5189 88.8822 55.3043 88.8683ZM68.6833 84.0988C67.3668 84.8463 64.4299 85.9676 62.7201 86.4863L64.1537 90.4468C66.7978 89.7216 68.9817 88.8765 70.7835 87.97L67.8047 86.9798L68.6833 84.0988ZM41.7823 84.0988L42.6637 86.98L39.6821 87.9702C41.4811 88.8766 43.6733 89.7218 46.3091 90.4442L47.7455 86.4837C46.0386 85.9649 43.096 84.8463 41.7823 84.0988ZM55.2283 11.1018C57.9868 11.1018 60.6866 11.7628 62.7673 12.9203C62.957 12.2844 63.2219 11.509 63.5817 10.6974L62.7952 10.7922L61.9724 10.8759L61.6237 10.1256L60.5694 7.90271L58.6561 8.90126L57.9086 9.28058L57.3118 8.69486L55.2283 6.63086L53.1504 8.69486L52.5563 9.28058L51.8116 8.90126L49.8871 7.90271L48.8468 10.1256L48.4926 10.8787L47.667 10.7922L46.886 10.6974C47.2458 11.509 47.508 12.2845 47.7004 12.9203C49.7867 11.7628 52.4866 11.1018 55.2311 11.1018H55.2283ZM97.3023 36.8098C97.6621 36.9325 98.0247 36.9883 98.3845 36.9883C99.9465 36.9883 101.453 35.9758 101.969 34.8211C101.969 34.8211 99.1097 34.6482 96.0361 31.5215C95.0598 30.5118 94.0223 30.2078 93.1354 30.2078C91.7548 30.2078 90.7172 30.9358 90.7172 30.9358C94.4323 32.9161 95.1882 36.0958 97.3023 36.8098ZM12.0803 36.9855C12.4429 36.9855 12.8055 36.9325 13.1541 36.807C15.2739 36.093 16.0381 32.9161 19.7448 30.9386C19.7448 30.9386 18.7073 30.2078 17.335 30.2078C16.4425 30.2078 15.4077 30.5091 14.4259 31.5243C11.3551 34.6481 8.49888 34.8239 8.49888 34.8239C9.01208 35.9758 10.521 36.9883 12.0802 36.9883L12.0803 36.9855ZM53.3513 24.6385V26.2562L53.0417 26.1112C53.0277 26.1 52.5703 25.9996 51.781 25.3692C50.4728 24.3539 50.4478 23.4168 50.4478 23.4168L53.3485 24.6385L53.3513 24.6385ZM54.7179 32.2166V22.1696L48.3364 19.9996L50.021 29.734L54.7207 32.2164L54.7179 32.2166ZM57.1166 24.6385L60.0173 23.4168C60.0173 23.4168 59.995 24.354 58.6813 25.3692C57.892 25.9968 57.4373 26.1 57.4234 26.1111L57.1166 26.2534L57.1166 24.6385ZM60.4441 29.7371L62.1203 20.0027L55.7415 22.1699V32.2169L60.444 29.7345L60.4441 29.7371ZM45.6921 55.5061C46.3141 55.7292 47.0671 55.7767 47.4548 55.7767C47.4687 55.7293 47.491 55.6707 47.5106 55.5982C47.5412 55.4866 47.5747 55.3694 47.5998 55.2467C47.7086 54.6889 47.7449 54.0613 47.756 53.6541C47.3993 53.4421 47.1086 53.135 46.9165 52.7672C46.6794 52.2679 46.3419 52.0336 45.8483 52.0336C45.2068 52.0336 44.5179 52.4241 44.2195 52.6026C43.9852 53.9916 45.0088 55.2523 45.6922 55.5033L45.6921 55.5061ZM59.8101 50.176C58.6275 51.4674 56.3041 53.7182 56.1925 53.8297L56.053 53.9692L48.7176 53.8548C48.7115 54.4617 48.6328 55.0656 48.4833 55.6538L48.4248 55.8853L57.1464 57.4584C58.0528 56.8225 60.5491 54.9956 61.5198 54.2788C60.8141 53.2469 60.7472 52.0224 60.9062 51.1634C60.4874 50.8989 60.1168 50.5649 59.8101 50.176Z" fill="#FFFFFE"/>
<path d="M70.9569 60.4566H39.5089V72.3076C39.5089 77.1551 43.0093 80.1869 48.1775 80.1869C52.4923 80.1869 53.6302 80.3543 55.234 81.9524C56.3413 80.8451 57.2561 80.4351 59.1388 80.2789L59.1807 80.0976L60.1709 77.0268C60.1151 76.9571 58.4974 75.1135 58.4974 75.1135C57.8559 75.3283 57.3148 75.3646 56.4055 75.3646C55.4767 75.3646 54.4252 75.253 53.2845 75.041C53.1775 75.0157 53.068 75.0025 52.9581 75.002C52.8187 75.002 52.8103 75.0131 52.7712 75.0828L52.576 75.4092L52.2134 76.0061L51.5357 75.8471L48.5178 75.1358L48.1022 75.8192L48.1663 75.8945L48.5317 76.2989L48.3699 76.8288C48.1468 77.5178 47.4272 78.3238 47.2068 78.5469L46.4538 79.3558L45.7649 78.4884L45.2489 77.8385C44.705 77.2305 44.5795 76.2989 44.8863 75.3227C44.8773 75.3293 44.8667 75.3331 44.8556 75.3339L44.0049 75.6881L43.6228 74.8513L43.3522 74.2628C43.0926 73.6607 43.0458 72.9881 43.2197 72.3558C43.3937 71.7235 43.7778 71.1694 44.3089 70.7848L46.7355 69.4098L49.0505 69.8645C49.1063 69.6413 49.19 68.8492 49.2542 68.6456C49.2095 68.64 49.1677 68.6316 49.1231 68.6316L47.7899 69.1281L46.5069 68.2411C46.5069 68.2411 46.0048 67.7558 46.4595 67.2705L47.7007 65.3822L44.549 61.4217L49.3937 63.4131L49.7172 63.0142L50.3699 62.2277L51.1118 62.9361C51.3069 63.1269 51.4425 63.37 51.5023 63.6362C52.8355 64.1578 55.2286 65.6946 55.4406 68.1936L54.6931 68.4921V68.5116C54.8632 68.7152 55.0054 68.7989 55.0501 68.8072L58.5086 69.1475C58.5978 69.1308 58.7038 69.0917 58.8265 69.0582C59.2589 68.9104 59.9031 68.6957 60.6674 68.6957C61.2922 68.6957 61.8946 68.8407 62.472 69.114C62.6868 69.0304 62.9462 68.9718 63.253 68.9523L63.4203 68.9467C65.2695 68.9467 66.19 70.3329 66.929 71.4401C67.0518 71.6325 67.1745 71.811 67.3028 71.9895C67.9499 72.9044 68.795 74.2403 68.8285 74.2989L69.2106 74.893L68.742 75.4397C68.385 75.858 67.8411 76.3462 66.9151 76.3462C66.7053 76.3444 66.4961 76.3229 66.2904 76.282C66.1006 76.2456 65.9154 76.1885 65.7381 76.1119C65.7097 76.3087 65.6772 76.5049 65.6405 76.7004L65.0352 79.8716C68.6611 78.9791 70.9649 76.2345 70.9649 72.3075L70.9569 60.4566ZM39.5089 59.5027H63.9699C62.7482 58.2364 62.7678 56.6383 63.0774 55.5979C62.7475 55.4394 62.4406 55.2367 62.1653 54.9955C61.2086 55.7011 58.2912 57.8292 57.5299 58.3647L57.3653 58.4762L47.765 56.7358H47.5697C47.341 56.7358 47.0035 56.7274 46.6354 56.6801C46.596 56.8563 46.5063 57.0174 46.3773 57.1438C46.2482 57.2702 46.0853 57.3565 45.9082 57.3922C45.7311 57.4279 45.5475 57.4115 45.3795 57.345C45.2116 57.2785 45.0665 57.1648 44.9619 57.0175C44.8884 56.917 44.8357 56.8028 44.8069 56.6816C44.7782 56.5604 44.774 56.4347 44.7945 56.3119L44.8308 56.1027C43.8434 55.4054 42.9259 53.8435 43.333 52.1979L43.372 52.025L43.5115 51.9246C43.6522 51.8285 43.7974 51.7391 43.9466 51.6568L43.2493 51.5452C43.1255 51.524 43.0148 51.4553 42.9409 51.3537C42.8669 51.2521 42.8355 51.1257 42.8533 51.0013C42.8979 50.7392 43.1405 50.5551 43.3999 50.6025L45.0594 50.8647L45.2128 45.0047L47.684 42.3829L49.2292 45.6378L47.6004 51.2775L49.0675 51.509C49.1928 51.5295 49.3048 51.5989 49.3791 51.7019C49.4533 51.8049 49.4837 51.9331 49.4636 52.0584C49.4456 52.1695 49.3885 52.2705 49.3025 52.3431C49.2166 52.4158 49.1075 52.4553 48.995 52.4545L48.9197 52.4517L47.7231 52.2565C47.7398 52.2955 47.7621 52.315 47.7789 52.3541C47.9121 52.585 48.1125 52.7699 48.3534 52.884L55.6693 53.0039C55.9789 52.6999 56.7459 51.9469 57.5381 51.1491C56.8487 50.8961 56.2434 50.4559 55.7901 49.878C55.3369 49.3001 55.0536 48.6073 54.9721 47.8774C53.968 47.4479 53.2707 46.8064 52.8858 45.9697C52.4173 44.9322 52.5846 43.8946 52.7101 43.3898C51.7339 43.0356 50.7075 42.3829 49.6587 41.3398H38.6367C39.1109 42.6117 39.5097 43.9895 39.5097 45.3589V59.4999L39.5089 59.5027Z" fill="#FFE52B"/>
<path d="M55.2338 21.0664L48.2414 18.2995C48.8355 16.8882 51.5772 15.6889 55.2338 15.6861C58.8931 15.6889 61.6349 16.8882 62.229 18.2995L55.2338 21.0664ZM60.4467 29.7378L55.747 32.2202V22.1682L62.1258 19.9982L60.4468 29.7326L60.4467 29.7378ZM63.3586 32.4042L65.5063 33.6538H65.5369L66.078 33.9689C64.8647 34.3036 63.936 34.9145 63.1579 35.7121L63.0742 35.7958C62.8907 35.9916 62.7148 36.1944 62.547 36.4038L62.4494 36.5321C62.2821 36.7469 62.1231 36.9672 61.9753 37.1959L61.8944 37.3103C61.7135 37.5865 61.5414 37.8683 61.3784 38.1554C59.8444 40.7967 57.4039 42.3754 55.2339 42.381C53.0639 42.3754 50.6207 40.7967 49.0922 38.1554C48.9297 37.8737 48.7595 37.5966 48.5818 37.3242L48.4813 37.1764C48.3356 36.961 48.1849 36.749 48.0295 36.5405C47.9905 36.4847 47.9542 36.4429 47.9152 36.3955C47.7514 36.192 47.5812 35.9939 47.4048 35.8014C47.3685 35.7735 47.3434 35.7372 47.3099 35.7065C46.513 34.8721 45.5033 34.2712 44.3897 33.9689L44.9364 33.6538H44.9587L47.1147 32.4042L49.3209 31.1351L55.2227 34.3538L55.2339 34.3426L55.2506 34.3538L61.1496 31.1351L63.3586 32.4042ZM71.8376 41.3406C71.355 42.6125 70.9562 43.9903 70.9562 45.3597L70.9618 54.2013C69.1181 53.8944 68.8978 51.9031 68.8922 51.8166L68.8587 51.4121L68.4599 51.3759C67.7835 51.3163 67.1515 51.0141 66.6804 50.5252C65.7739 49.6187 65.7739 48.1516 65.7739 48.1377C65.7628 48.213 64.7809 49.5881 65.919 51.0942C66.3987 51.7301 67.0959 52.1234 67.994 52.2768C68.206 53.3785 69.026 54.9376 70.9618 55.1775V59.5007H65.5201C63.0099 58.1034 64.0725 55.6433 64.1228 55.5374L64.3348 55.0688L63.8551 54.8875C61.1357 53.8778 61.886 51.1612 61.9223 51.0441L62.0339 50.6481L61.6601 50.4751C59.4177 49.432 59.7217 46.6261 59.7524 46.509C59.0607 47.0696 58.8125 48.2104 59.2866 49.3344C59.03 49.6301 58.6842 49.9843 58.3076 50.3747C57.6524 50.2316 57.0626 49.8769 56.6291 49.3652C56.1955 48.8536 55.9425 48.2135 55.9089 47.5437L55.9061 47.2146L55.5993 47.0975C54.6928 46.7628 54.0708 46.2551 53.7612 45.5774C53.4181 44.8271 53.5381 44.0434 53.6329 43.6613C54.1541 43.7694 54.6849 43.8254 55.2172 43.8286H55.2535C55.524 43.8286 55.789 43.8119 56.0512 43.7868C57.5016 43.6417 59.1193 43.0198 60.8095 41.3407L71.8376 41.3406ZM65.0376 79.8726L65.6456 76.7014L65.7432 76.1156C66.1185 76.2626 66.5172 76.3411 66.9202 76.3471C67.8462 76.3471 68.3873 75.8562 68.7471 75.4407L69.2101 74.8968L68.8308 74.2999C68.7973 74.2413 67.9522 72.9053 67.3051 71.9905C67.1765 71.8098 67.0528 71.6256 66.9342 71.4382C66.195 70.3337 65.2718 68.9475 63.4198 68.9475L63.2553 68.9531C62.9886 68.9675 62.7254 69.0211 62.4743 69.1121C61.9108 68.8427 61.2944 68.7017 60.6697 68.6993C60.0413 68.7145 59.42 68.8351 58.8316 69.0564C58.7089 69.0926 58.5973 69.1317 58.5109 69.1484L55.0524 68.8081C55.0078 68.797 54.8683 68.7133 54.6954 68.5125V68.493L55.4429 68.1945C55.2337 65.6955 52.8379 64.1586 51.5046 63.6371C51.4455 63.3699 51.3098 63.1256 51.1141 62.9342L50.3722 62.2286L49.7195 63.0123L49.3988 63.414L44.5513 61.4198L47.7029 65.3831L46.4618 67.2714C46.0043 67.7539 46.5092 68.242 46.5092 68.242L47.7922 69.129L49.1254 68.6297C49.17 68.6297 49.209 68.6409 49.2565 68.6464C49.1923 68.8501 49.1086 69.645 49.0528 69.8653L46.7406 69.4107L44.314 70.7857C43.0616 71.7062 42.8916 73.2234 43.3573 74.2637L43.6251 74.855L44.0072 75.689L44.8579 75.3375C44.8718 75.3319 44.883 75.3291 44.8914 75.3208C44.5846 76.2998 44.7101 77.2285 45.254 77.8394L45.77 78.4893L46.4561 79.3595L47.2091 78.5479C47.4323 78.3247 48.1519 77.5187 48.3722 76.827L48.534 76.2998L48.1686 75.8954L48.1073 75.8201L48.5201 75.1367L51.538 75.8508L52.2185 76.007L52.5811 75.4073L52.7763 75.0838C52.8126 75.014 52.821 75.0029 52.9604 75.0029C53.0692 75.0029 53.1752 75.014 53.2896 75.0419C54.3187 75.2451 55.3644 75.3524 56.4133 75.3627C57.3142 75.3627 57.8581 75.3292 58.4996 75.1144C58.4996 75.1144 60.12 76.9553 60.1758 77.0277L59.1829 80.0958L59.1383 80.2799C57.2612 80.4333 56.3464 80.8461 55.2391 81.9534C53.6326 80.358 52.4973 80.1879 48.1826 80.1879C43.0144 80.1879 39.5112 77.1561 39.5112 72.3058V60.4578H70.9612L70.9668 72.3058C70.9668 76.2357 68.6635 78.9773 65.0376 79.8726ZM45.6666 73.1731L45.8311 73.5831C45.7196 73.9401 44.4923 74.4477 44.4923 74.4477L44.2302 73.8648C44.0627 73.4653 44.0341 73.0212 44.1488 72.6035C44.2636 72.1858 44.5152 71.8187 44.8633 71.561L46.8519 70.3477L48.9633 70.7939C48.9214 71.4661 49.3231 71.9681 49.3231 71.9681L47.1141 71.5442L45.7893 72.459C45.5661 72.6152 45.5494 72.9053 45.6666 73.1731ZM64.7026 76.5201L64.0248 80.0651C63.5897 80.1264 63.1323 80.1599 62.6637 80.1766L63.3777 76.7739C63.5897 75.7586 60.8787 75.4435 59.537 73.4548C58.8816 74.1912 57.6515 74.4115 56.4132 74.4115C55.2808 74.4115 54.154 74.2302 53.4651 74.0936C53.2993 74.0647 53.1314 74.0489 52.9631 74.0462C52.5642 74.0462 52.2044 74.1689 51.9534 74.59L51.7581 74.9247L48.0597 74.0517L47.1393 75.5774C47.011 75.8257 46.9999 76.0321 47.209 76.2635L47.4601 76.5369C47.2871 77.0752 46.5173 77.8924 46.5173 77.8924L45.9678 77.2035C45.5327 76.7182 45.6053 75.8257 46.0571 75.0001L47.5242 72.5177L50.6564 72.9723L50.1711 71.8595C49.5156 70.3896 50.5142 68.5209 50.6202 67.4443C50.5839 67.7706 50.2855 67.8431 49.9396 67.8431C49.6216 67.8431 49.2702 67.7846 49.0359 67.7846C48.9439 67.7846 48.863 67.793 48.8211 67.8236L47.9732 68.3396L47.3039 67.7483C47.223 67.6367 47.1979 67.3662 47.3931 67.1654L48.9439 65.425L47.1142 63.2829L49.6746 64.5743L50.4584 63.6232C50.6731 63.8351 50.5783 64.3846 50.5783 64.3846C51.3788 64.4069 53.6241 65.6481 53.7412 68.5488C53.7496 68.638 53.7496 68.7357 53.7496 68.8333L53.8082 68.9281C53.9671 69.1485 54.405 69.7091 54.96 69.7593L58.5023 70.1107H58.5162C58.9067 70.1107 59.6793 69.6533 60.6694 69.6533C61.2133 69.6533 61.8129 69.7928 62.4545 70.1972C62.4545 70.1972 62.778 69.9406 63.2996 69.9127C63.3386 69.9071 63.3833 69.9071 63.4195 69.9071C65.0093 69.9071 65.6703 71.3463 66.5238 72.5428C67.1653 73.4521 68.0216 74.802 68.0216 74.802C67.7065 75.1785 67.4108 75.3877 66.9171 75.3877C66.7635 75.3883 66.6103 75.3733 66.4597 75.3431C64.7583 75.0279 64.5101 71.522 63.5395 71.2431C63.4885 71.2296 63.436 71.2231 63.3833 71.2236C63.0709 71.2236 62.9342 71.5025 62.9342 71.5025C63.3805 72.6991 63.1183 73.1815 63.5981 74.1048C63.9551 74.7881 64.5882 75.3488 64.8505 75.6165C64.8505 75.6165 64.7807 76.1353 64.7026 76.523L64.7026 76.5201ZM61.4421 80.2017C60.9679 80.2017 60.5272 80.2073 60.1312 80.224L61.1687 76.9858C61.3304 76.5367 60.5104 75.9594 60.1729 75.4518C60.6833 75.7753 62.0082 76.4837 62.6469 76.7627C62.233 77.9046 61.8314 79.051 61.4421 80.2017ZM46.0121 51.0217L46.1599 45.3932L47.4206 44.0572L48.2127 45.7195L46.6507 51.1221L46.0092 51.0244L46.0121 51.0217ZM46.9186 52.7677C47.11 53.1343 47.3997 53.4405 47.7553 53.6518C47.7455 54.1868 47.6943 54.7202 47.6019 55.2472C47.574 55.3699 47.5461 55.4843 47.5098 55.5986C47.4931 55.6712 47.4708 55.7297 47.4569 55.7772C47.0692 55.7772 46.3134 55.7297 45.6969 55.5038C45.0107 55.2528 43.9872 53.9921 44.2242 52.6031C44.5198 52.4218 45.206 52.0341 45.8502 52.0341C46.3438 52.0341 46.6815 52.2684 46.9186 52.7677ZM61.5225 54.2794C60.5547 54.9962 58.0557 56.8231 57.1492 57.459L48.4248 55.8859L48.4861 55.6544C48.5977 55.1997 48.7176 54.5806 48.7232 53.8526L56.0559 53.9697L56.1954 53.8302C56.3069 53.7187 58.6304 51.4678 59.813 50.1765C60.0947 50.5308 60.4461 50.8655 60.909 51.1611C60.7528 52.0258 60.8169 53.2475 61.5225 54.2794ZM49.6605 41.3414C50.712 42.3845 51.7357 43.0344 52.712 43.3914C52.5864 43.8934 52.4191 44.9366 52.8877 45.9713C53.2726 46.808 53.9699 47.4495 54.9768 47.879C55.0883 48.9109 55.7382 50.4645 57.5428 51.1507C56.7507 51.9484 55.9808 52.7015 55.674 53.0027L48.3553 52.8883C48.1135 52.7727 47.913 52.5858 47.7807 52.3528C47.7668 52.3165 47.7417 52.297 47.7249 52.258L48.9215 52.4532L48.9968 52.456C49.1093 52.4568 49.2184 52.4173 49.3044 52.3446C49.3903 52.272 49.4474 52.171 49.4654 52.0599C49.4856 51.935 49.4556 51.8072 49.3819 51.7042C49.3083 51.6013 49.1969 51.5317 49.0722 51.5105L47.6022 51.2762L49.2311 45.6393L47.6887 42.3844L45.2146 45.0062L45.064 50.8662L43.4017 50.6012C43.1451 50.551 42.8997 50.7407 42.8523 51.0001C42.8337 51.1256 42.8651 51.2534 42.9396 51.3562C43.0142 51.4589 43.126 51.5283 43.2511 51.5495L43.9484 51.6555C43.6974 51.7977 43.5328 51.9121 43.5133 51.9261L43.3738 52.0265L43.3348 52.1994C42.9304 53.845 43.8452 55.4069 44.8326 56.1042L44.7963 56.3134C44.7573 56.5644 44.813 56.8154 44.9637 57.019C45.0494 57.1427 45.1641 57.2435 45.2979 57.3126C45.4316 57.3816 45.5802 57.4168 45.7307 57.4151C45.9421 57.4134 46.1466 57.3402 46.3112 57.2076C46.4757 57.0749 46.5906 56.8905 46.6372 56.6843C47.0053 56.7262 47.3428 56.7373 47.5716 56.7373H47.7696L57.3672 58.4749L57.5317 58.3661C58.296 57.8306 61.2133 55.7025 62.1672 54.9969C62.4322 55.2229 62.7251 55.4293 63.0793 55.5994C62.7697 56.6397 62.7502 58.2379 63.9718 59.5042H39.5108V45.3632C39.5108 43.991 39.112 42.6131 38.6378 41.3413L49.6605 41.3414ZM48.3386 20.0044L54.7229 22.1716V32.2186L50.0232 29.7362L48.3386 20.0018V20.0044ZM63.9126 18.7911C63.9126 16.3394 59.7929 14.1332 55.2467 14.1332H55.2189C50.6726 14.1332 46.5559 16.3394 46.5559 18.7911L46.6451 19.3935L48.4609 29.8335L46.6368 30.8933L41.9204 33.6546H41.9371C41.9371 33.6546 40.8773 34.2013 40.3835 34.536C38.5873 35.7856 38.2051 37.6096 39.2483 38.3627C39.5049 36.8761 40.6791 35.3225 42.8742 35.3225C44.4585 35.3225 45.6633 36.1425 46.6395 37.3669C46.8906 37.6765 47.1276 38.0084 47.348 38.3626C47.6213 38.8117 47.8974 39.2077 48.168 39.587H36.013C36.9055 41.386 37.7562 43.291 37.7562 45.3605V72.3095C37.7562 78.8305 42.7627 81.9431 48.1792 81.9431C52.3657 81.9431 52.9291 81.7535 55.2385 84.0573C57.5367 81.7535 58.1029 81.9431 62.2923 81.9431C67.7116 81.9431 72.7103 78.8305 72.7103 72.3095V45.3605C72.7103 43.2909 73.561 41.386 74.4591 39.587H62.2981C62.5714 39.2077 62.8448 38.8117 63.1181 38.3626C63.3412 38.0084 63.5783 37.6765 63.8237 37.3669C64.8056 36.1369 66.0105 35.3225 67.5947 35.3225C69.7897 35.3225 70.9611 36.8761 71.2206 38.3627C72.2637 37.6096 71.8871 35.7855 70.077 34.536C69.5973 34.2013 68.5319 33.6546 68.5319 33.6546H68.5514L63.8238 30.8933L62.0108 29.8335L63.8238 19.3935L63.9126 18.7911ZM14.4275 31.5261C15.4094 30.5136 16.4441 30.2069 17.3367 30.2069C18.7089 30.2069 19.7493 30.9404 19.7493 30.9404C16.0398 32.9207 15.2755 36.0947 13.1558 36.8116C12.8105 36.9313 12.4473 36.9907 12.0819 36.9873C10.5227 36.9873 9.01385 35.9776 8.50065 34.8257C8.50065 34.8257 11.3566 34.6499 14.4275 31.5261ZM12.0819 38.2591C12.5923 38.2591 13.0916 38.181 13.5657 38.0192C14.8933 37.5785 15.7413 36.5214 16.6338 35.4169C17.5458 34.2929 18.5722 33.0182 20.3517 32.0699L22.1814 31.0853L20.4799 29.886C20.3405 29.7995 19.0659 28.9377 17.3367 28.9377C15.9198 28.9377 14.6033 29.515 13.5184 30.6251C10.8771 33.3278 8.50905 33.5453 8.42255 33.5481L6.58165 33.6568L7.33472 35.3498C8.09895 37.0372 10.0961 38.2591 12.0819 38.2591ZM20.4018 53.0521C20.2066 48.2519 21.4338 44.3612 23.3584 41.1531C22.2874 44.4945 22.4323 48.5834 26.0918 52.4051C26.0918 52.4051 18.8177 43.6751 28.9841 34.7331C33.0507 31.3276 37.4994 29.2246 39.7871 27.7351C31.5145 30.4406 27.4731 27.4617 27.4731 27.4617C30.1144 29.7571 33.5366 29.7209 35.6591 29.3862C35.0846 29.6679 34.4822 29.9608 33.8407 30.3094C26.8595 34.1054 20.5926 40.3564 19.5156 49.0074V48.9433C17.8952 57.439 14.2861 59.6203 14.2861 59.6203C17.1589 58.1979 18.9663 54.4325 19.4069 53.0769C19.8866 60.5462 23.5237 65.7279 27.7743 70.7179C29.9833 73.3034 30.7586 75.8165 30.7586 75.8165C30.7586 75.8165 30.3291 72.9688 28.413 70.651C24.4525 65.8732 20.6814 59.927 20.4025 53.051L20.4018 53.0521ZM52.8419 35.5441V37.2622C53.4332 36.5398 54.5712 36.6876 54.5712 36.6876V39.1616C54.5712 39.1616 54.5349 40.3777 54.1026 40.9048H56.5738C56.1443 40.3777 56.1024 39.1616 56.1024 39.1616V36.6876C56.1024 36.6876 57.2459 36.5398 57.8317 37.2622V35.5441H52.8391H52.8419ZM51.7821 25.3701C52.5714 25.9976 53.0289 26.1036 53.0428 26.112L53.3496 26.2542V24.6393L50.4489 23.4176C50.4489 23.4176 50.474 24.3548 51.7821 25.3701ZM58.6824 25.3701C59.9933 24.3548 60.0211 23.4177 60.0211 23.4177L57.1176 24.6394V26.2571L57.4245 26.112C57.4384 26.1036 57.893 25.9976 58.6824 25.3701ZM93.1374 30.2092C94.0243 30.2092 95.0618 30.5132 96.038 31.5257C99.1117 34.6495 101.971 34.8253 101.971 34.8253C101.452 35.9772 99.9457 36.9897 98.3865 36.9897C98.0267 36.9897 97.6613 36.9339 97.3071 36.8084C95.1901 36.0943 94.4343 32.9175 90.722 30.94C90.722 30.94 91.7539 30.2092 93.1374 30.2092ZM90.1167 32.0668C91.8934 33.0151 92.9308 34.2897 93.8401 35.4166C94.7327 36.5183 95.5777 37.5782 96.9082 38.0189C97.3768 38.1806 97.8761 38.2587 98.3865 38.2587C100.375 38.2587 102.375 37.037 103.134 35.3468L103.895 33.6566L102.051 33.5451C101.965 33.5451 99.5913 33.3247 96.9528 30.6249C95.8651 29.5148 94.5513 28.9347 93.1372 28.9347C91.4079 28.9347 90.1249 29.7993 89.9855 29.8886L88.2897 31.0852L90.1167 32.0668ZM90.9506 48.9438V49.0079C89.8796 40.356 83.6096 34.1079 76.6276 30.3099C75.9861 29.9641 75.3864 29.6684 74.8091 29.3895C76.9317 29.7186 80.3539 29.7576 82.998 27.465C82.998 27.465 78.9538 30.441 70.679 27.7355C72.9661 29.2249 77.4204 31.3279 81.487 34.7307C91.648 43.6782 84.3793 52.4027 84.3793 52.4027C88.033 48.5844 88.1837 44.4955 87.1071 41.1547C89.0316 44.3622 90.2588 48.2531 90.0692 53.0537C89.7903 59.9289 86.0166 65.8747 82.0476 70.6537C80.1399 72.9687 79.7159 75.8192 79.7159 75.8192C79.7159 75.8192 80.4857 73.3062 82.6919 70.7206C86.9453 65.728 90.5852 60.5486 91.0593 53.0796C91.5 54.4379 93.3129 58.2032 96.1857 59.623C96.1857 59.623 92.5737 57.4418 90.9505 48.946L90.9506 48.9438ZM35.6696 81.6768C25.0796 81.6768 25.3506 72.5814 25.3506 72.5814C25.3506 72.5814 24.6087 75.2757 21.6606 75.9758C21.3005 76.0664 20.9302 76.1104 20.5589 76.1068C19.6106 76.1068 18.785 75.8837 18.785 75.8837C18.785 75.8837 20.3274 72.6148 18.7906 68.0434C17.5243 64.2502 17.7308 61.436 17.7308 61.436C17.7308 61.436 16.3056 63.5976 12.7661 63.6199H12.7299C9.78725 63.6199 8.50145 61.3803 8.50145 61.3803C15.558 58.4433 14.8663 48.9683 14.8663 48.9683C14.8663 48.9683 13.9458 49.6544 12.1607 49.7214H11.9739C8.08017 49.7214 6.76097 45.5488 6.76097 45.5488H6.84186C7.56146 45.5488 13.3378 45.3814 17.4239 40.1741C20.1154 36.7519 22.3244 33.7423 26.6723 32.5597L27.1102 32.4816L27.2022 32.0437C27.3249 31.3799 26.8675 30.7523 25.8356 30.0802C19.825 26.1364 23.9056 21.1076 23.9056 21.1076C23.9056 21.1076 25.6125 25.1267 29.4644 25.1267L29.7433 25.1239C30.1784 25.1016 30.6051 25.0821 31.0263 24.9928L31.7347 24.8561C31.7347 24.8561 30.6358 21.8718 33.2855 19.1329C35.2769 17.0633 37.6951 16.7119 39.0925 16.7119C39.8038 16.7119 40.2416 16.8039 40.2416 16.8039C38.9196 18.5415 37.9601 21.4283 39.4886 23.2078C40.8162 24.7391 44.0488 24.8116 44.0488 27.0903C44.0488 28.0582 43.1479 29.185 41.533 30.1974C36.666 33.2655 31.8382 37.3376 29.829 42.7954C27.3244 49.6009 30.1525 54.1194 34.1884 56.7134C34.1884 56.7134 32.9193 57.8793 31.0841 58.027C30.7244 58.0617 30.3632 58.0793 30.0019 58.08C26.1305 58.08 24.128 56.2615 24.128 56.2615C24.128 56.2615 24.4627 58.7745 26.4653 61.1118C28.3341 63.265 30.7745 64.534 34.4981 64.5871C34.4981 64.5871 34.618 66.3164 32.9696 67.8169C31.9126 68.7652 29.4776 69.072 29.4776 69.072C29.4776 69.072 34.0434 69.998 34.5455 76.7477C34.8188 80.407 35.7448 81.6761 35.7448 81.6761L35.6696 81.6768ZM36.7936 80.9516C36.7908 80.9376 36.0517 79.7802 35.8146 76.6564C35.5357 72.9134 34.1244 70.7267 32.7271 69.4716C33.1315 69.2819 33.508 69.0448 33.8204 68.7603C35.8704 66.9139 35.7839 64.7441 35.77 64.5042L35.6919 63.3327L34.5177 63.316C31.3883 63.2658 29.2044 62.3286 27.4333 60.2702C27.0515 59.8246 26.7116 59.3447 26.418 58.8366C27.3942 59.1351 28.588 59.3554 30.0021 59.3554C30.3786 59.3554 30.7747 59.3331 31.1903 59.3052C32.6139 59.163 33.9599 58.5888 35.0477 57.6596L36.2666 56.5356L34.8776 55.6431C31.765 53.6489 28.5826 49.8696 31.0286 43.2401C32.6101 38.9309 36.2666 35.0289 42.2126 31.2851C44.2208 30.016 45.3197 28.5182 45.3197 27.0902C45.3197 24.884 43.4788 24.0138 42.1289 23.3918C41.4707 23.0766 40.7846 22.7642 40.4527 22.3765C39.4068 21.1632 40.2854 18.8399 41.2588 17.5791L42.5028 15.9475L40.4863 15.5486C40.4305 15.5402 39.9005 15.4426 39.0917 15.4426C37.5883 15.4426 34.7127 15.808 32.3699 18.243C30.4147 20.2679 30.1581 22.424 30.2585 23.8157C30.0688 23.8324 29.8791 23.8408 29.6783 23.8491H29.4636C26.5183 23.8491 25.1293 20.7253 25.0763 20.6053L24.2479 18.6529L22.9091 20.2985C22.8338 20.3989 20.873 22.8422 21.3527 25.9075C21.6678 27.9436 22.9453 29.7007 25.1376 31.1455C25.3774 31.2989 25.542 31.43 25.6619 31.5388C21.5228 32.8859 19.2162 35.8396 16.7785 38.944L16.4271 39.3847C12.7008 44.1346 7.4262 44.2768 6.7962 44.2768L5 44.221L5.54667 45.9335C5.61082 46.1399 7.20057 51.0014 11.9729 51.0014L12.2016 50.993C12.7064 50.979 13.1611 50.9093 13.5627 50.8312C13.3674 53.4809 12.3913 58.3814 8.00668 60.2029L6.66788 60.7607L7.39306 62.0243C7.46 62.1386 9.08886 64.8914 12.7762 64.8914C14.0959 64.9046 15.3992 64.5984 16.575 63.9989C16.7172 65.1982 17.0129 66.7351 17.5875 68.456C18.9207 72.4333 17.6795 75.2253 17.6321 75.3368L16.9739 76.7258L18.4605 77.1191C18.5609 77.147 19.4757 77.3757 20.5578 77.3757C22.0468 77.3795 23.4878 76.849 24.6189 75.8807C25.0233 77.1275 25.7178 78.536 26.9199 79.7827C28.9671 81.8885 31.9097 82.9511 35.7531 82.9511L38.082 82.9204L36.7936 80.9516ZM49.5816 65.5976C49.5392 65.5942 49.4965 65.5993 49.4561 65.6127C49.4156 65.6261 49.3783 65.6475 49.3463 65.6756C49.3143 65.7037 49.2883 65.7379 49.2698 65.7763C49.2513 65.8146 49.2407 65.8563 49.2386 65.8988C49.2351 65.9413 49.2404 65.9841 49.254 66.0246C49.2676 66.065 49.2893 66.1022 49.3177 66.1341C49.3461 66.1659 49.3807 66.1916 49.4194 66.2096C49.458 66.2277 49.4999 66.2377 49.5426 66.2391C49.6278 66.2445 49.7118 66.2163 49.7764 66.1605C49.8411 66.1047 49.8813 66.0257 49.8884 65.9406C49.893 65.8545 49.8633 65.7701 49.8058 65.7058C49.7483 65.6415 49.6677 65.6026 49.5816 65.5976ZM64.1576 90.4486L62.7212 86.4881C64.4309 85.9665 67.3679 84.8453 68.6872 84.1006L67.8086 86.9818L70.7846 87.972C68.9828 88.8757 66.8017 89.7208 64.1576 90.446L64.1576 90.4486ZM55.238 94.0048C51.7767 94.0048 47.8272 93.2071 46.6614 92.7915L48.4297 87.9997C49.8968 88.4292 52.9481 88.8838 55.1655 88.8699H55.305C57.5195 88.8838 60.5681 88.4264 62.0436 87.9997L63.8091 92.7915C62.6432 93.2099 58.6939 94.0048 55.238 94.0048ZM39.686 87.9719L42.6648 86.9817L41.7834 84.1005C43.097 84.8452 46.0424 85.9693 47.7466 86.488L46.3102 90.4485C43.6745 89.7233 41.485 88.8756 39.686 87.9719ZM70.919 87.0933L69.106 86.396L69.6081 84.5217L70.1575 82.4773C70.1575 82.4773 66.95 84.2233 62.4232 85.5315C61.1402 85.8997 60.1696 86.0698 60.1696 86.0698V87.4616C60.1696 87.4616 57.7486 87.88 55.3054 87.88H55.166C52.7171 87.88 50.3018 87.4616 50.3018 87.4616V86.067C50.3018 86.067 49.3283 85.8997 48.0454 85.5315C43.5242 84.2206 40.3166 82.4773 40.3166 82.4773L40.8577 84.5217L41.3709 86.396L39.5524 87.0933L37.5359 87.8464C39.8453 88.9648 43.0472 90.591 45.9758 91.3942L45.2868 93.2853C45.2868 93.2853 49.0019 94.9811 55.1913 94.9978V95.0005H55.275V94.9978C61.4725 94.981 65.1876 93.2853 65.1876 93.2853L64.4903 91.3942C67.4217 90.5909 70.6292 88.9676 72.9274 87.8464L70.919 87.0933ZM47.671 10.7903L48.4938 10.8796L48.848 10.1265L49.8855 7.90358L51.81 8.90213L52.5575 9.28424L55.2295 6.62894L57.313 8.69294L57.9099 9.28424L58.6574 8.90213L60.5707 7.90358L61.625 10.1265L61.9736 10.8796L62.7964 10.7903L63.583 10.6983C63.2232 11.5099 62.9582 12.2826 62.7658 12.924C60.6879 11.7609 57.9879 11.1027 55.2323 11.1027C52.4877 11.1027 49.7879 11.7609 47.7016 12.924C47.4766 12.1659 47.2046 11.4225 46.8872 10.6983L47.6682 10.7903H47.671ZM55.2296 12.2602C58.9196 12.2602 61.8677 13.4874 63.4994 14.7899C63.4994 14.7899 63.9847 11.8697 65.6359 9.2953L62.6655 9.63L61.1119 6.3248L58.1275 7.8672L55.2296 5L52.3428 7.8672L49.3528 6.3248L47.802 9.6328L44.8316 9.29253C46.4855 11.8697 46.9681 14.7871 46.9681 14.7871C48.6081 13.4845 51.5478 12.2602 55.2296 12.2602ZM101.971 61.3792C101.971 61.3792 100.688 63.6188 97.7422 63.6188H97.7059C94.1693 63.5965 92.7412 61.4349 92.7412 61.4349C92.7412 61.4349 92.9476 64.2463 91.6758 68.0423C90.1418 72.6165 91.687 75.8798 91.687 75.8798C91.687 75.8798 90.8614 76.1057 89.9103 76.1057C89.5477 76.1057 89.1684 76.0695 88.8086 75.9746C85.8549 75.2746 85.1186 72.5802 85.1186 72.5802C85.1186 72.5802 85.3919 81.6756 74.8016 81.6756H74.7179C74.7179 81.6756 75.6523 80.4065 75.9284 76.7472C76.4305 69.9975 80.9935 69.0687 80.9935 69.0687C80.9935 69.0687 78.5585 68.7619 77.5015 67.8163C75.8531 66.3185 75.9675 64.5865 75.9675 64.5865C79.6938 64.5335 82.1371 63.2645 83.9975 61.1085C85.1964 59.7292 86.0052 58.0547 86.3404 56.2582C86.3404 56.2582 84.3378 58.0795 80.4637 58.0795C80.1235 58.0795 79.7609 58.0628 79.3871 58.0265C77.5518 57.8787 76.2856 56.71 76.2856 56.71C80.3187 54.1189 83.1469 49.5977 80.6394 42.792C78.6312 37.3393 73.8004 33.2646 68.9394 30.196C67.3217 29.1835 66.418 28.0567 66.418 27.0889C66.418 24.8102 69.6534 24.7377 70.981 23.2064C72.515 21.4269 71.5528 18.5402 70.2252 16.8025C70.2252 16.8025 70.6714 16.7105 71.3771 16.7105C72.7772 16.7105 75.1982 17.0619 77.1897 19.1315C79.831 21.8705 78.7349 24.8548 78.7349 24.8548L79.4433 24.9943C79.8673 25.0807 80.2884 25.1002 80.7263 25.1226L81.0108 25.1254C84.8515 25.1254 86.5668 21.1035 86.5668 21.1035C86.5668 21.1035 90.6501 26.1351 84.6395 30.0789C83.6048 30.751 83.1473 31.3787 83.2673 32.0424L83.3621 32.4803L83.7889 32.5556C88.1455 33.741 90.3518 36.7533 93.0436 40.1728C97.1325 45.3801 102.917 45.5475 103.629 45.5475H103.707C103.707 45.5475 102.387 49.7229 98.4966 49.7229C98.4324 49.7229 98.3767 49.7229 98.3125 49.7173C96.5274 49.6531 95.607 48.967 95.607 48.967C95.607 48.967 94.9125 58.4413 101.972 61.379L101.971 61.3792ZM98.4953 51.0002C103.265 51.0002 104.86 46.1388 104.927 45.9323L105.457 44.217L103.672 44.2728H103.667C103.034 44.2728 97.7735 44.1333 94.0442 39.3835L93.6899 38.9428C91.2522 35.8385 88.94 32.8848 84.8065 31.5376C84.9717 31.393 85.148 31.2615 85.3337 31.1443C87.5259 29.6995 88.8034 27.9452 89.1213 25.9063C89.5926 22.841 87.6375 20.3978 87.5538 20.2973L86.2262 18.6517L85.395 20.6041C85.3392 20.7241 83.9446 23.8479 81.0105 23.8479H80.793C80.5921 23.8395 80.3997 23.8312 80.21 23.8145C80.3132 22.4199 80.0594 20.2667 78.107 18.2418C75.7613 15.8068 72.883 15.4415 71.3768 15.4415C70.5736 15.4415 70.038 15.5419 69.9795 15.5474L67.9741 15.9463L69.2097 17.5779C70.1804 18.8386 71.0617 21.162 70.0186 22.3753C69.6839 22.7658 68.9977 23.0754 68.3424 23.3906C66.9925 24.0126 65.146 24.8828 65.146 27.089C65.146 28.517 66.2533 30.0148 68.2614 31.2839C74.1967 35.0241 77.8617 38.9289 79.4434 43.2389C81.8923 49.8659 78.6987 53.6479 75.5944 55.6389L74.2054 56.5342L75.4243 57.6554C75.5888 57.8004 77.0754 59.1141 79.2761 59.3038C79.6944 59.3317 80.0933 59.354 80.4671 59.354C81.8756 59.354 83.0777 59.1309 84.054 58.8352C83.7622 59.3444 83.4222 59.8245 83.0387 60.2688C81.2674 62.3272 79.0863 63.2644 75.9485 63.3146L74.7826 63.3313L74.6933 64.5027C74.6822 64.7398 74.5957 66.9125 76.6457 68.7589C76.9609 69.0434 77.3402 69.2805 77.739 69.4702C76.3444 70.7253 74.9332 72.912 74.6598 76.655C74.4283 79.7788 73.6836 80.9363 73.6752 80.9502L72.3866 82.9193L74.7155 82.95C78.5617 82.95 81.5071 81.8901 83.5459 79.7815C84.6019 78.674 85.3901 77.3392 85.8497 75.8795C86.9823 76.8453 88.4223 77.3754 89.9107 77.3745C90.9984 77.3745 91.9077 77.143 92.0081 77.1207L93.4947 76.7247L92.8393 75.3357C92.7891 75.2241 91.5507 72.435 92.8839 68.4549C93.4584 66.734 93.7513 65.1944 93.8936 63.9923C94.8308 64.4832 96.0831 64.8848 97.7036 64.8904C101.385 64.8904 103.006 62.1375 103.078 62.0232L103.803 60.7569L102.459 60.2046C98.0747 58.3805 97.104 53.4828 96.9088 50.8329C97.3076 50.9082 97.7595 50.978 98.2699 50.9919L98.4953 51.0002Z" fill="black"/>
<path d="M142.021 63.7057H150.388V44.2377H161.879V37.1533H130.529V44.2377H142.02L142.021 63.7057ZM187.261 37.1527L173.315 52.6047V37.1527H165.226V63.7057H172.367L186.313 48.2537V63.7057H194.401V37.1527H187.261ZM208.617 53.8317H221.614V63.7053H229.702V37.1523H221.614V46.8585H208.617V37.1523H200.528V63.7053H208.617V53.8317ZM252.228 63.7053C254.069 63.7053 255.742 63.5379 257.304 63.0917C261.488 61.9203 264.221 58.5175 264.221 53.8875C264.221 49.4807 261.878 46.4126 258.141 45.018C256.356 44.3486 254.236 44.2928 252.228 44.2928H243.916V37.1526H235.828V63.7056L252.228 63.7053ZM243.916 50.5403H250.833C251.949 50.5403 253.009 50.5403 253.957 50.875C255.296 51.3212 256.077 52.4369 256.077 53.7757C256.077 55.1703 255.296 56.3417 254.013 56.8995C253.12 57.29 252.228 57.29 250.833 57.29H243.916V50.5403ZM276.493 53.6641H278.725L288.375 63.7051H299.141L285.697 49.8711L298.639 37.1531H288.487L278.725 47.1382H276.494V37.1531H268.405V63.7061H276.494L276.493 53.6641ZM315.784 36.4271C304.906 36.4271 298.38 42.5632 298.38 50.4841C298.38 58.405 304.907 64.5411 315.784 64.5411C326.606 64.5411 333.132 58.405 333.132 50.4841C333.132 42.5632 326.606 36.4271 315.784 36.4271ZM315.784 58.0711C310.373 58.0711 306.915 54.8357 306.915 50.4846C306.915 46.1335 310.373 42.9539 315.784 42.9539C321.139 42.9539 324.654 46.1335 324.654 50.4846C324.654 54.8357 321.139 58.0711 315.784 58.0711ZM360.07 38.3241V35.6465H351.982V38.3241C341.83 38.5472 335.749 42.8425 335.749 50.4291C335.749 58.0157 341.829 61.9761 351.982 62.1991V64.8767H360.07V62.1991C370.278 61.976 376.359 58.0154 376.359 50.4291C376.359 42.8428 370.279 38.5471 360.07 38.3241ZM351.982 56.5091C346.403 56.286 343.949 53.9989 343.949 50.4288C343.949 46.8587 346.403 44.2927 351.982 44.0696V56.5091ZM360.07 56.5091V44.0691C365.704 44.2922 368.103 46.8582 368.103 50.4283C368.103 53.9984 365.704 56.286 360.07 56.5091ZM403.268 38.3241V35.6465H395.18V38.3241C385.028 38.5472 378.947 42.8425 378.947 50.4291C378.947 58.0157 385.027 61.9761 395.18 62.1991V64.8767H403.268V62.1991C413.476 61.976 419.557 58.0154 419.557 50.4291C419.557 42.8428 413.477 38.5471 403.268 38.3241ZM395.18 56.5091C389.602 56.286 387.147 53.9989 387.147 50.4288C387.147 46.8587 389.602 44.2927 395.18 44.0696V56.5091ZM403.268 56.5091V44.0691C408.902 44.2922 411.301 46.8582 411.301 50.4283C411.301 53.9984 408.902 56.286 403.268 56.5091Z" fill="white"/>
</svg>
