<svg width="33" height="33" viewBox="0 0 33 33" fill="none" xmlns="http://www.w3.org/2000/svg">
<g clip-path="url(#clip0_1665_84)">
<path d="M10.3923 6C0 12 0 12 6 22.3923C12 32.7846 12 32.7846 22.3923 26.7846C28.1081 23.4846 30.0846 16.1081 26.7846 10.3923C23.4846 4.67654 16.1081 2.7 10.3923 6ZM21.6423 25.4856C16.6194 28.3856 10.199 26.6653 7.29904 21.6423C2.04904 12.549 2.04904 12.549 11.1423 7.29904C16.158 4.40322 22.5856 6.11936 25.4856 11.1423C28.3856 16.1653 26.6653 22.5856 21.6423 25.4856Z" fill="white"/>
<path d="M17.89 11.8V12.655L16.855 13.09L13.465 22H11.86L8.47 13.09L7.435 12.655V11.8H10.96V12.655L9.85 13.09L12.775 20.95L15.715 13.09L14.605 12.655V11.8H17.89ZM29.6032 21.16V21.985H26.0482V21.16L26.9932 20.725L23.6932 16.795L21.5482 18.475V20.71L22.7332 21.175V22H19.1482V21.175L20.2582 20.71V13.09L19.1482 12.655V11.8H22.6582V12.655L21.5482 13.09V17.155L26.7982 13.03L25.9132 12.655V11.8H29.4532V12.655L28.3582 13.15L24.6832 16.03L28.6432 20.71L29.6032 21.16Z" fill="white"/>
</g>
<defs>
<clipPath id="clip0_1665_84">
<rect width="24" height="24" fill="white" transform="translate(0 12) rotate(-30)"/>
</clipPath>
</defs>
</svg>
