<svg width="33" height="33" viewBox="0 0 33 33" fill="none" xmlns="http://www.w3.org/2000/svg">
<g clip-path="url(#clip0_1665_74)">
<path d="M10.3923 6C0 12 0 12 6 22.3923C12 32.7846 12 32.7846 22.3923 26.7846C28.1081 23.4846 30.0846 16.1081 26.7846 10.3923C23.4846 4.67654 16.1081 2.7 10.3923 6ZM21.6423 25.4856C16.6194 28.3856 10.199 26.6653 7.29904 21.6423C2.04904 12.549 2.04904 12.549 11.1423 7.29904C16.158 4.40322 22.5856 6.11936 25.4856 11.1423C28.3856 16.1653 26.6653 22.5856 21.6423 25.4856Z" fill="white"/>
<path d="M15.0244 13.7561L13.561 12L12.878 12.1951L12 13.1707V13.7561L12.5854 14.9268L13.561 16.3902L15.5122 18.3415L17.6585 20H19.122L20 19.0244V18.3415L18.439 17.0732L16.878 17.4634L14.439 14.9268L15.0244 13.7561Z" stroke="white"/>
</g>
<defs>
<clipPath id="clip0_1665_74">
<rect width="24" height="24" fill="white" transform="translate(0 12) rotate(-30)"/>
</clipPath>
</defs>
</svg>
