<svg width="64" height="64" viewBox="0 0 64 64" fill="none" xmlns="http://www.w3.org/2000/svg">
<rect width="64" height="64" rx="11" fill="#2C2C2E"/>
<path d="M12.8679 51.303L15.5619 41.468C13.8999 38.59 13.0259 35.324 13.0269 31.979C13.0319 21.514 21.5479 13 32.0139 13C37.0929 13.002 41.8589 14.979 45.4439 18.566C49.0279 22.154 51.0019 26.922 50.9999 31.994C50.9959 42.459 42.4779 50.974 32.0139 50.974H32.0059C28.8289 50.973 25.7059 50.176 22.9329 48.663L12.8679 51.303Z" fill="#494949"/>
<path d="M12.868 51.803C12.736 51.803 12.608 51.751 12.513 51.655C12.388 51.528 12.339 51.343 12.386 51.172L15.025 41.536C13.389 38.63 12.526 35.33 12.528 31.98C12.532 21.238 21.273 12.5 32.014 12.5C37.224 12.502 42.119 14.531 45.798 18.213C49.477 21.896 51.502 26.79 51.5 31.994C51.496 42.735 42.754 51.474 32.014 51.474C28.825 51.473 25.67 50.686 22.87 49.197L12.995 51.786C12.953 51.798 12.911 51.803 12.868 51.803Z" fill="#494949"/>
<path d="M32.0141 13C37.0931 13.002 41.8591 14.979 45.4441 18.566C49.0281 22.154 51.0021 26.922 51.0001 31.994C50.9961 42.459 42.4781 50.974 32.0141 50.974H32.0061C28.8291 50.973 25.7061 50.176 22.9331 48.663L12.8681 51.303L15.5621 41.468C13.9001 38.59 13.0261 35.324 13.0271 31.979C13.0321 21.514 21.5481 13 32.0141 13ZM32.0141 12C20.9981 12 12.0321 20.962 12.0271 31.979C12.0261 35.346 12.8761 38.664 14.4881 41.601L11.9031 51.04C11.8091 51.385 11.9051 51.753 12.1571 52.007C12.3471 52.199 12.6041 52.304 12.8681 52.304C12.9531 52.304 13.0381 52.293 13.1221 52.271L22.8091 49.731C25.6371 51.199 28.8071 51.974 32.0061 51.975C43.0301 51.975 51.9961 43.012 52.0011 31.995C52.0031 26.656 49.9261 21.636 46.1531 17.86C42.3781 14.083 37.3571 12.002 32.0141 12Z" fill="#3F3F3F"/>
<path d="M43.1759 20.8321C40.1959 17.8501 36.2349 16.2071 32.0189 16.2061C23.3149 16.2061 16.2359 23.2821 16.2319 31.9801C16.2309 34.9611 17.0649 37.8631 18.6449 40.3761L19.0209 40.9731L17.4259 46.7941L23.3989 45.2281L23.9759 45.5701C26.3979 47.0081 29.1759 47.7681 32.0079 47.7691H32.0139C40.7119 47.7691 47.7909 40.6921 47.7939 31.9931C47.7949 27.7781 46.1559 23.8141 43.1759 20.8321Z" fill="white"/>
<path fill-rule="evenodd" clip-rule="evenodd" d="M27.268 24.0449C26.913 23.2549 26.539 23.2389 26.2 23.2249C25.923 23.2129 25.607 23.2139 25.291 23.2139C24.975 23.2139 24.461 23.3329 24.026 23.8079C23.591 24.2829 22.365 25.4299 22.365 27.7639C22.365 30.0979 24.065 32.3539 24.302 32.6699C24.539 32.9859 27.584 37.9289 32.406 39.8309C36.413 41.4109 37.229 41.0969 38.099 41.0179C38.969 40.9389 40.906 39.8709 41.301 38.7629C41.696 37.6549 41.696 36.7059 41.578 36.5079C41.459 36.3099 41.143 36.1919 40.669 35.9539C40.195 35.7159 37.862 34.5689 37.427 34.4109C36.992 34.2529 36.676 34.1739 36.359 34.6489C36.043 35.1229 35.134 36.1919 34.857 36.5079C34.58 36.8249 34.303 36.8649 33.829 36.6269C33.355 36.3889 31.827 35.8889 30.014 34.2729C28.604 33.0159 27.652 31.4629 27.375 30.9879C27.098 30.5139 27.345 30.2569 27.583 30.0199C27.796 29.8069 28.057 29.4659 28.295 29.1889C28.532 28.9119 28.611 28.7139 28.769 28.3979C28.927 28.0809 28.848 27.8039 28.729 27.5669C28.612 27.3289 27.69 24.9829 27.268 24.0449Z" fill="#494949"/>
</svg>
