<svg width="36" height="36" viewBox="0 0 36 36" fill="none" xmlns="http://www.w3.org/2000/svg">
<path d="M27.5035 31.0608C29.0942 31.0608 30.3835 29.7714 30.3835 28.1808C30.3835 26.5902 29.0942 25.3008 27.5035 25.3008C25.9129 25.3008 24.6235 26.5902 24.6235 28.1808C24.6235 29.7714 25.9129 31.0608 27.5035 31.0608Z" stroke="white" stroke-width="2" stroke-linecap="round" stroke-linejoin="round"/>
<path d="M13.1036 31.0608C14.6942 31.0608 15.9836 29.7714 15.9836 28.1808C15.9836 26.5902 14.6942 25.3008 13.1036 25.3008C11.5131 25.3008 10.2236 26.5902 10.2236 28.1808C10.2236 29.7714 11.5131 31.0608 13.1036 31.0608Z" stroke="white" stroke-width="2" stroke-linecap="round" stroke-linejoin="round"/>
<path d="M3.6001 5.12597C3.6001 5.12597 10.2817 5.03957 9.3601 10.886L8.36658 16.7324C8.21924 17.4334 8.2337 18.1587 8.40904 18.8534C8.58436 19.5479 8.91589 20.1933 9.37828 20.7405C9.8407 21.2876 10.4219 21.7219 11.0775 22.0106C11.7331 22.2992 12.4459 22.4344 13.1617 22.406H24.6817C26.2771 22.3586 27.8092 21.7718 29.028 20.7414C30.2467 19.7109 31.0802 18.2975 31.3921 16.7324L32.3858 10.814C32.5431 10.1051 32.5353 9.36953 32.3632 8.66409C32.191 7.95866 31.8589 7.30223 31.3928 6.74554C30.9265 6.18883 30.3386 5.74675 29.6743 5.45345C29.01 5.16015 28.2872 5.0235 27.5617 5.05398H15.0337" stroke="white" stroke-width="2" stroke-linecap="round" stroke-linejoin="round"/>
</svg>
