<svg width="800" height="800" viewBox="0 0 800 800" fill="none" xmlns="http://www.w3.org/2000/svg">
<path d="M128.792 548.507C100.194 434.113 85.895 376.917 115.923 338.46C145.95 300 204.907 300 322.821 300H477.177C595.09 300 654.047 300 684.074 338.46C714.104 376.917 699.804 434.113 671.207 548.507C653.017 621.263 643.92 657.64 616.797 678.82C589.67 700 552.174 700 477.177 700H322.821C247.826 700 210.328 700 183.202 678.82C156.076 657.64 146.981 621.263 128.792 548.507Z" stroke="white" stroke-width="50"/>
<path opacity="0.5" d="M650 316.666L626.32 229.821C617.19 196.335 612.623 179.591 603.26 166.982C593.933 154.424 581.26 144.744 566.693 139.05C552.063 133.333 534.71 133.333 500 133.333M150 316.666L173.68 229.821C182.811 196.335 187.376 179.591 196.74 166.982C206.066 154.424 218.739 144.744 233.307 139.05C247.936 133.333 265.291 133.333 300 133.333" stroke="white" stroke-width="50"/>
<path d="M300 133.333C300 114.924 314.924 100 333.333 100H466.667C485.077 100 500 114.924 500 133.333C500 151.743 485.077 166.667 466.667 166.667H333.333C314.924 166.667 300 151.743 300 133.333Z" stroke="white" stroke-width="50"/>
</svg>
