<svg width="23" height="23" viewBox="0 0 23 23" fill="none" xmlns="http://www.w3.org/2000/svg">
<rect width="23" height="23" rx="3" fill="#404040"/>
<path d="M11 7.5H19H11ZM11 15.5H19H11ZM5.5 5.5H7.5C8.05228 5.5 8.5 5.94772 8.5 6.5V8.5C8.5 9.05228 8.05228 9.5 7.5 9.5H5.5C4.94771 9.5 4.5 9.05228 4.5 8.5V6.5C4.5 5.94772 4.94771 5.5 5.5 5.5ZM5.5 13.5H7.5C8.05228 13.5 8.5 13.9477 8.5 14.5V16.5C8.5 17.0523 8.05228 17.5 7.5 17.5H5.5C4.94771 17.5 4.5 17.0523 4.5 16.5V14.5C4.5 13.9477 4.94771 13.5 5.5 13.5Z" stroke="#F5F5F5"/>
</svg>
