<svg width="23" height="23" viewBox="0 0 23 23" fill="none" xmlns="http://www.w3.org/2000/svg">
<rect width="23" height="23" rx="3" fill="#404040"/>
<path d="M9.5 4.5H5.5C4.94771 4.5 4.5 4.94771 4.5 5.5V9.5C4.5 10.0523 4.94771 10.5 5.5 10.5H9.5C10.0523 10.5 10.5 10.0523 10.5 9.5V5.5C10.5 4.94771 10.0523 4.5 9.5 4.5Z" stroke="white"/>
<path d="M17.5 4.5H13.5C12.9477 4.5 12.5 4.94771 12.5 5.5V9.5C12.5 10.0523 12.9477 10.5 13.5 10.5H17.5C18.0523 10.5 18.5 10.0523 18.5 9.5V5.5C18.5 4.94771 18.0523 4.5 17.5 4.5Z" stroke="white"/>
<path d="M17.5 12.5H13.5C12.9477 12.5 12.5 12.9477 12.5 13.5V17.5C12.5 18.0523 12.9477 18.5 13.5 18.5H17.5C18.0523 18.5 18.5 18.0523 18.5 17.5V13.5C18.5 12.9477 18.0523 12.5 17.5 12.5Z" stroke="white"/>
<path d="M9.5 12.5H5.5C4.94771 12.5 4.5 12.9477 4.5 13.5V17.5C4.5 18.0523 4.94771 18.5 5.5 18.5H9.5C10.0523 18.5 10.5 18.0523 10.5 17.5V13.5C10.5 12.9477 10.0523 12.5 9.5 12.5Z" stroke="white"/>
</svg>
