<svg width="20" height="18" viewBox="0 0 20 18" fill="none" xmlns="http://www.w3.org/2000/svg">
<path d="M15.8692 4.2069C15.136 3.4326 14.1655 3.0094 13.1297 3.0094C12.0939 3.0094 11.1204 3.43574 10.3873 4.21004L10.0044 4.61443L9.61564 4.20376C8.88255 3.42947 7.90608 3 6.87026 3C5.8374 3 4.8639 3.42633 4.13378 4.19749C3.4007 4.97179 2.99705 6 3.00002 7.09405C3.00002 8.1881 3.40663 9.21318 4.13972 9.98747L9.71358 15.8747C9.79075 15.9562 9.89463 16 9.99554 16C10.0964 16 10.2003 15.9593 10.2775 15.8778L15.8633 10C16.5963 9.22572 17 8.1975 17 7.10346C17.0029 6.00941 16.6022 4.9812 15.8692 4.2069Z" fill="white"/>
</svg>
