<svg width="20" height="18" viewBox="0 0 20 18" fill="none" xmlns="http://www.w3.org/2000/svg">
<path d="M15.8692 4.2069C15.136 3.4326 14.1655 3.0094 13.1297 3.0094C12.0939 3.0094 11.1204 3.43574 10.3873 4.21004L10.0044 4.61443L9.61564 4.20376C8.88255 3.42947 7.90608 3 6.87026 3C5.8374 3 4.8639 3.42633 4.13378 4.19749C3.4007 4.97179 2.99705 6 3.00002 7.09405C3.00002 8.1881 3.40663 9.21318 4.13972 9.98747L9.71358 15.8747C9.79075 15.9562 9.89463 16 9.99554 16C10.0964 16 10.2003 15.9593 10.2775 15.8778L15.8633 10C16.5963 9.22572 17 8.1975 17 7.10346C17.0029 6.00941 16.6022 4.9812 15.8692 4.2069ZM15.2993 9.40127L9.99554 14.9812L4.70364 9.39186C4.12191 8.77744 3.80137 7.96239 3.80137 7.09405C3.80137 6.22571 4.11894 5.41066 4.70067 4.79937C5.27942 4.18809 6.05109 3.84953 6.87026 3.84953C7.69239 3.84953 8.46703 4.18809 9.04876 4.80251L9.71952 5.51098C9.87682 5.67712 10.1291 5.67712 10.2864 5.51098L10.9512 4.80878C11.533 4.19436 12.3076 3.8558 13.1267 3.8558C13.9459 3.8558 14.7176 4.19436 15.2993 4.80565C15.8811 5.42006 16.1986 6.23511 16.1986 7.10346C16.2016 7.9718 15.8811 8.78685 15.2993 9.40127Z" fill="white"/>
</svg>
