<svg width="30" height="30" viewBox="0 0 30 30" fill="none" xmlns="http://www.w3.org/2000/svg">
<g clip-path="url(#clip0_3972_42)">
<path d="M13.4457 6C12.8063 6 12.2799 6.51532 12.2799 7.1413V7.90217H9.23124C9.20942 7.8986 9.18733 7.89686 9.16521 7.89697C9.14638 7.89737 9.12761 7.89911 9.10904 7.90217H8.39412C8.34262 7.90146 8.2915 7.91077 8.24372 7.92957C8.19593 7.94837 8.15244 7.97628 8.11577 8.01168C8.0791 8.04708 8.04999 8.08926 8.03011 8.13577C8.01023 8.18228 8 8.23219 8 8.28261C8 8.33303 8.01023 8.38294 8.03011 8.42945C8.04999 8.47596 8.0791 8.51814 8.11577 8.55354C8.15244 8.58894 8.19593 8.61685 8.24372 8.63564C8.2915 8.65444 8.34262 8.66376 8.39412 8.66304H8.7827V22.3587C8.7827 22.9847 9.30905 23.5 9.94844 23.5H20.0516C20.691 23.5 21.2173 22.9847 21.2173 22.3587V8.66304H21.6059C21.6574 8.66376 21.7085 8.65444 21.7563 8.63564C21.8041 8.61685 21.8476 8.58894 21.8842 8.55354C21.9209 8.51814 21.95 8.47596 21.9699 8.42945C21.9898 8.38294 22 8.33303 22 8.28261C22 8.23219 21.9898 8.18228 21.9699 8.13577C21.95 8.08926 21.9209 8.04708 21.8842 8.01168C21.8476 7.97628 21.8041 7.94837 21.7563 7.92957C21.7085 7.91077 21.6574 7.90146 21.6059 7.90217H20.894C20.852 7.89538 20.8092 7.89538 20.7672 7.90217H17.7201V7.1413C17.7201 6.51532 17.1937 6 16.5543 6H13.4457ZM13.4457 6.76087H16.5543C16.7698 6.76087 16.9429 6.93034 16.9429 7.1413V7.90217H13.0571V7.1413C13.0571 6.93034 13.2302 6.76087 13.4457 6.76087ZM9.55986 8.66304H12.6032C12.6452 8.66983 12.688 8.66983 12.73 8.66304H17.2662C17.3082 8.66983 17.351 8.66983 17.393 8.66304H20.4401V22.3587C20.4401 22.5697 20.267 22.7391 20.0516 22.7391H9.94844C9.73296 22.7391 9.55986 22.5697 9.55986 22.3587V8.66304ZM12.6624 10.56C12.5595 10.5616 12.4614 10.6031 12.3897 10.6754C12.318 10.7477 12.2785 10.8449 12.2799 10.9457V20.4565C12.2792 20.5069 12.2887 20.557 12.3079 20.6038C12.3271 20.6505 12.3556 20.6931 12.3918 20.729C12.4279 20.7649 12.471 20.7934 12.5185 20.8129C12.566 20.8324 12.617 20.8424 12.6685 20.8424C12.72 20.8424 12.771 20.8324 12.8185 20.8129C12.866 20.7934 12.9091 20.7649 12.9452 20.729C12.9814 20.6931 13.0099 20.6505 13.0291 20.6038C13.0483 20.557 13.0578 20.5069 13.0571 20.4565V10.9457C13.0578 10.8948 13.0481 10.8442 13.0285 10.7971C13.0089 10.7499 12.9798 10.7071 12.943 10.6711C12.9062 10.6352 12.8624 10.6068 12.8142 10.5877C12.766 10.5686 12.7144 10.5592 12.6624 10.56ZM14.9939 10.56C14.891 10.5616 14.7929 10.6031 14.7212 10.6754C14.6495 10.7477 14.61 10.8449 14.6114 10.9457V20.4565C14.6107 20.5069 14.6202 20.557 14.6394 20.6038C14.6586 20.6505 14.6871 20.6931 14.7233 20.729C14.7594 20.7649 14.8025 20.7934 14.85 20.8129C14.8975 20.8324 14.9485 20.8424 15 20.8424C15.0515 20.8424 15.1025 20.8324 15.15 20.8129C15.1975 20.7934 15.2406 20.7649 15.2767 20.729C15.3129 20.6931 15.3414 20.6505 15.3606 20.6038C15.3798 20.557 15.3893 20.5069 15.3886 20.4565V10.9457C15.3893 10.8948 15.3796 10.8442 15.36 10.7971C15.3404 10.7499 15.3113 10.7071 15.2745 10.6711C15.2377 10.6352 15.1939 10.6068 15.1457 10.5877C15.0975 10.5686 15.0459 10.5592 14.9939 10.56ZM17.3254 10.56C17.2225 10.5616 17.1244 10.6031 17.0527 10.6754C16.981 10.7477 16.9415 10.8449 16.9429 10.9457V20.4565C16.9422 20.5069 16.9517 20.557 16.9709 20.6038C16.9901 20.6505 17.0186 20.6931 17.0548 20.729C17.0909 20.7649 17.134 20.7934 17.1815 20.8129C17.229 20.8324 17.28 20.8424 17.3315 20.8424C17.383 20.8424 17.434 20.8324 17.4815 20.8129C17.529 20.7934 17.5721 20.7649 17.6082 20.729C17.6444 20.6931 17.6729 20.6505 17.6921 20.6038C17.7113 20.557 17.7208 20.5069 17.7201 20.4565V10.9457C17.7208 10.8948 17.7111 10.8442 17.6915 10.7971C17.6719 10.7499 17.6428 10.7071 17.606 10.6711C17.5692 10.6352 17.5254 10.6068 17.4772 10.5877C17.429 10.5686 17.3774 10.5592 17.3254 10.56Z" fill="white"/>
</g>
<defs>
<clipPath id="clip0_3972_42">
<rect width="30" height="30" fill="white"/>
</clipPath>
</defs>
</svg>
