<svg width="24" height="30" viewBox="0 0 24 30" fill="none" xmlns="http://www.w3.org/2000/svg">
<path fill-rule="evenodd" clip-rule="evenodd" d="M5 12C4.72386 12 4.5 12.2239 4.5 12.5V24.5C4.5 24.7761 4.72386 25 5 25H19C19.2761 25 19.5 24.7761 19.5 24.5V12.5C19.5 12.2239 19.2761 12 19 12H15C14.7239 12 14.5 11.7761 14.5 11.5C14.5 11.2239 14.7239 11 15 11H19C19.8284 11 20.5 11.6716 20.5 12.5V24.5C20.5 25.3284 19.8284 26 19 26H5C4.17157 26 3.5 25.3284 3.5 24.5V12.5C3.5 11.6716 4.17157 11 5 11H9C9.27614 11 9.5 11.2239 9.5 11.5C9.5 11.7761 9.27614 12 9 12H5Z" fill="black"/>
<path d="M12.3536 5.14645C12.1583 4.95118 11.8417 4.95118 11.6464 5.14645L8.64645 8.14645C8.45118 8.34171 8.45118 8.65829 8.64645 8.85355C8.84171 9.04882 9.15829 9.04882 9.35355 8.85355L11.5 6.70711V17.5C11.5 17.7761 11.7239 18 12 18C12.2761 18 12.5 17.7761 12.5 17.5V6.70711L14.6464 8.85355C14.8417 9.04882 15.1583 9.04882 15.3536 8.85355C15.5488 8.65829 15.5488 8.34171 15.3536 8.14645L12.3536 5.14645Z" fill="black"/>
</svg>
